<svg width="20" height="20" viewBox="0 0 20 20" fill="none" xmlns="http://www.w3.org/2000/svg">
<mask id="mask0_2560_12327" style="mask-type:alpha" maskUnits="userSpaceOnUse" x="0" y="0" width="20" height="20">
<rect width="20" height="20" fill="#D9D9D9"/>
</mask>
<g mask="url(#mask0_2560_12327)">
<path d="M15.2439 15.5846H6.75678C6.39137 15.5846 6.07671 15.4527 5.81283 15.1888C5.54894 14.9249 5.41699 14.6103 5.41699 14.2448V2.75776C5.41699 2.39234 5.54894 2.07769 5.81283 1.8138C6.07671 1.54991 6.39137 1.41797 6.75678 1.41797H13.2087L16.5837 4.79297V14.2448C16.5837 14.6103 16.4517 14.9249 16.1878 15.1888C15.9239 15.4527 15.6093 15.5846 15.2439 15.5846ZM12.417 5.58464V2.5013H6.75678C6.69262 2.5013 6.63387 2.52804 6.58053 2.58151C6.52706 2.63484 6.50033 2.69359 6.50033 2.75776V14.2448C6.50033 14.309 6.52706 14.3678 6.58053 14.4211C6.63387 14.4746 6.69262 14.5013 6.75678 14.5013H15.2439C15.308 14.5013 15.3668 14.4746 15.4201 14.4211C15.4736 14.3678 15.5003 14.309 15.5003 14.2448V5.58464H12.417ZM3.75678 18.5846C3.39137 18.5846 3.07671 18.4527 2.81283 18.1888C2.54894 17.9249 2.41699 17.6103 2.41699 17.2448V6.41797H3.50033V17.2448C3.50033 17.309 3.52706 17.3678 3.58053 17.4211C3.63387 17.4746 3.69262 17.5013 3.75678 17.5013H12.5837V18.5846H3.75678Z" fill="currentColor"/>
</g>
</svg>
