<svg width="21" height="20" viewBox="0 0 21 20" fill="none" xmlns="http://www.w3.org/2000/svg">
<path fill-rule="evenodd" clip-rule="evenodd" d="M3.67212 5.17037C4.42223 4.42049 5.43946 3.99923 6.50012 3.99923C7.56078 3.99923 8.57801 4.42049 9.32812 5.17037L10.5001 6.34137L11.6721 5.17037C12.0411 4.78833 12.4825 4.4836 12.9705 4.27397C13.4585 4.06433 13.9834 3.95399 14.5145 3.94937C15.0456 3.94475 15.5723 4.04596 16.0639 4.24708C16.5555 4.44821 17.0021 4.74522 17.3777 5.12079C17.7533 5.49636 18.0503 5.94297 18.2514 6.43456C18.4525 6.92614 18.5537 7.45286 18.5491 7.98398C18.5445 8.51509 18.4342 9.03997 18.2245 9.52799C18.0149 10.016 17.7102 10.4574 17.3281 10.8264L10.5001 17.6554L3.67212 10.8264C2.92224 10.0763 2.50098 9.05903 2.50098 7.99837C2.50098 6.93771 2.92224 5.92048 3.67212 5.17037V5.17037Z" stroke="currentColor" stroke-width="2" stroke-linejoin="round"/>
</svg>
