<svg width="20" height="20" viewBox="0 0 20 20" fill="none" xmlns="http://www.w3.org/2000/svg">
<path fill-rule="evenodd" clip-rule="evenodd" d="M15.2961 14.0588C16.7192 12.6771 17.6035 10.7434 17.6035 8.60324C17.6035 4.40409 14.1994 1 10.0002 1C5.80106 1 2.39697 4.40409 2.39697 8.60324C2.39697 10.7131 3.25634 12.6222 4.64413 13.9997L9.23383 18.7322C9.62388 19.1344 10.2682 19.1377 10.6624 18.7395L15.2961 14.0588ZM14.3448 8.60327C14.3448 11.0028 12.3997 12.948 10.0001 12.948C7.60062 12.948 5.65542 11.0028 5.65542 8.60327C5.65542 6.20375 7.60062 4.25856 10.0001 4.25856C12.3997 4.25856 14.3448 6.20375 14.3448 8.60327Z" fill="#A0A2A2"/>
</svg>
