<svg width="84" height="28" viewBox="0 0 84 28" fill="none" xmlns="http://www.w3.org/2000/svg">
<g clip-path="url(#clip0_1432_11425)">
<path d="M17.3853 10.166V22.5945H12.6824V10.166H4V5.37891H26.044V10.1636H17.3853V10.166Z" fill="#1B1B1B"/>
<path d="M27.1777 22.5951V11.4961H31.8806V22.5951H27.1777Z" fill="#1B1B1B"/>
<path d="M47.9727 24L42.2382 17.5481L36.4823 24L32.9961 20.7861L39.0579 13.9771L32.9961 7.21631L36.4823 4.00241L42.2382 10.4302L47.9727 4L51.4353 7.2139L45.3972 13.9747L51.4353 20.7837L47.9727 23.9976V24Z" fill="#1B1B1B"/>
<path d="M67.5352 24L61.8007 17.5481L56.0448 24L52.5586 20.7861L58.6204 13.9771L52.5586 7.21631L56.0448 4.00241L61.8007 10.4302L67.5352 4L70.9978 7.2139L64.9597 13.9747L70.9978 20.7837L67.5352 23.9976V24Z" fill="#1B1B1B"/>
<path d="M32.1582 7.87891C32.1582 9.31143 31.1007 10.3789 29.6407 10.3789C28.1807 10.3789 27.1582 9.31395 27.1582 7.87891C27.1582 6.44386 28.2157 5.37891 29.6407 5.37891C31.0657 5.37891 32.1582 6.44386 32.1582 7.87891Z" fill="#FF0859"/>
</g>
<defs>
<clipPath id="clip0_1432_11425">
<rect width="67" height="20" fill="white" transform="translate(4 4)"/>
</clipPath>
</defs>
</svg>
