<svg width="20" height="20" viewBox="0 0 20 20" fill="none" xmlns="http://www.w3.org/2000/svg">
<path fill-rule="evenodd" clip-rule="evenodd" d="M18.1038 8.25128C18.5998 7.88951 18.6557 7.17036 18.2216 6.73624L13.2345 1.74913C12.8004 1.31501 12.0812 1.37094 11.7194 1.86696L8.82945 5.82936C8.82945 5.82937 8.82945 5.82938 8.82945 5.82938C8.82946 5.82939 8.82946 5.8294 8.82945 5.82941L4.07558 7.54554C3.38648 7.79431 3.18998 8.67519 3.70803 9.19324L10.7775 16.2627C11.2956 16.7808 12.1765 16.5843 12.4252 15.8952L14.1414 11.1413C14.1414 11.1413 14.1414 11.1413 14.1414 11.1413C14.1414 11.1413 14.1414 11.1413 14.1414 11.1413L18.1038 8.25128Z" fill="#A0A2A2"/>
<rect x="7.74316" y="11.3984" width="1" height="7.57032" rx="0.5" transform="rotate(45 7.74316 11.3984)" fill="#A0A2A2"/>
</svg>
