<svg width="26" height="26" viewBox="0 0 26 26" fill="none" xmlns="http://www.w3.org/2000/svg">
<path d="M16.8489 16.8491C17.5591 16.1388 18.1225 15.2956 18.5069 14.3676C18.8913 13.4396 19.0892 12.445 19.0892 11.4405C19.0892 10.4361 18.8913 9.44144 18.5069 8.51344C18.1225 7.58544 17.5591 6.74224 16.8489 6.03198C16.1386 5.32172 15.2954 4.75831 14.3674 4.37392C13.4394 3.98953 12.4448 3.79169 11.4403 3.79169C10.4359 3.79169 9.44125 3.98953 8.51325 4.37392C7.58526 4.75831 6.74205 5.32172 6.03179 6.03198C4.59736 7.46641 3.7915 9.41192 3.7915 11.4405C3.7915 13.4691 4.59736 15.4146 6.03179 16.8491C7.46623 18.2835 9.41174 19.0894 11.4403 19.0894C13.4689 19.0894 15.4144 18.2835 16.8489 16.8491ZM16.8489 16.8491L21.6665 21.6666" stroke="currentColor" stroke-width="1.5" stroke-linecap="round" stroke-linejoin="round"/>
</svg>
