<svg width="20" height="20" viewBox="0 0 20 20" fill="none" xmlns="http://www.w3.org/2000/svg">
<path fill-rule="evenodd" clip-rule="evenodd" d="M16.5051 9.55988C16.5151 9.70538 16.5199 9.85127 16.5197 9.99728C16.5192 10.1343 16.5143 10.2712 16.5048 10.4078C16.4733 10.8644 16.6722 11.3193 17.0692 11.5472C17.5818 11.8415 17.7589 12.4956 17.4647 13.0082L16.3458 14.9588C16.0507 15.4732 15.394 15.6502 14.8803 15.3539C14.4884 15.1278 14.0012 15.1795 13.6249 15.4307C13.3793 15.5945 13.1229 15.7417 12.8575 15.8712C12.4478 16.0711 12.1558 16.4697 12.1558 16.9256C12.1558 17.519 11.6748 18 11.0814 18H8.8392C8.26555 18 7.80052 17.535 7.80052 16.9613C7.80052 16.5207 7.51873 16.1353 7.12205 15.9436C6.84819 15.8112 6.58381 15.66 6.33081 15.4912C5.95453 15.2401 5.46746 15.1884 5.07558 15.4145C4.56175 15.7108 3.90491 15.5337 3.60981 15.0191L2.49185 13.0697C2.19755 12.5565 2.37473 11.9019 2.8877 11.6072C3.28462 11.3792 3.48375 10.9245 3.452 10.4678C3.43175 10.1765 3.43175 9.88404 3.45202 9.59267C3.48376 9.13614 3.28459 8.68158 2.88769 8.45377C2.37478 8.15937 2.19753 7.50499 2.49174 6.99197L3.60981 5.04235C3.90491 4.52778 4.56175 4.35061 5.07558 4.64699C5.46746 4.87302 5.95453 4.82139 6.33081 4.57026C6.57675 4.40612 6.83344 4.25871 7.09914 4.12901C7.50879 3.92905 7.80052 3.5305 7.80052 3.07466C7.80052 2.48114 8.28166 2 8.87517 2H11.1007C11.6834 2 12.1558 2.47241 12.1558 3.05516C12.1558 3.50267 12.4421 3.89407 12.8446 4.08958C13.1146 4.22071 13.3753 4.37011 13.6249 4.53673C14.0012 4.78789 14.4883 4.83954 14.8802 4.61348C15.3939 4.31713 16.0507 4.4942 16.3458 5.00863L17.4649 6.95939C17.7589 7.47192 17.5819 8.12575 17.0695 8.41992C16.6723 8.64789 16.4736 9.10305 16.5051 9.55988ZM12.8869 9.99733C12.8869 11.6042 11.5843 12.9068 9.97742 12.9068C8.37058 12.9068 7.06797 11.6042 7.06797 9.99733C7.06797 8.39049 8.37058 7.08789 9.97742 7.08789C11.5843 7.08789 12.8869 8.39049 12.8869 9.99733Z" fill="#A0A2A2"/>
<path d="M16.5197 9.99728L17.0197 9.99885L17.0197 9.99826L16.5197 9.99728ZM16.5051 9.55988L16.0062 9.59423V9.59423L16.5051 9.55988ZM16.5048 10.4078L17.0036 10.4422V10.4422L16.5048 10.4078ZM17.0692 11.5472L16.8202 11.9809L16.8202 11.9809L17.0692 11.5472ZM17.4647 13.0082L17.8984 13.257L17.4647 13.0082ZM16.3458 14.9588L15.9121 14.71L16.3458 14.9588ZM14.8803 15.3539L14.6304 15.787V15.787L14.8803 15.3539ZM13.6249 15.4307L13.3474 15.0147H13.3474L13.6249 15.4307ZM12.8575 15.8712L13.0768 16.3205L12.8575 15.8712ZM7.12205 15.9436L6.90446 16.3937L7.12205 15.9436ZM6.33081 15.4912L6.60837 15.0753L6.33081 15.4912ZM5.07558 15.4145L5.3254 15.8476H5.3254L5.07558 15.4145ZM3.60981 15.0191L4.04355 14.7704L3.60981 15.0191ZM2.49185 13.0697L2.05812 13.3184H2.05812L2.49185 13.0697ZM2.8877 11.6072L2.63864 11.1737H2.63864L2.8877 11.6072ZM3.452 10.4678L2.95321 10.5025L3.452 10.4678ZM3.45202 9.59267L3.95081 9.62736L3.45202 9.59267ZM2.88769 8.45377L3.13659 8.02012L3.13659 8.02012L2.88769 8.45377ZM2.49174 6.99197L2.92547 7.24071L2.92547 7.24071L2.49174 6.99197ZM3.60981 5.04235L4.04355 5.29109L3.60981 5.04235ZM5.07558 4.64699L4.82576 5.0801H4.82576L5.07558 4.64699ZM6.33081 4.57026L6.60837 4.98615L6.33081 4.57026ZM7.09914 4.12901L6.87982 3.67968L6.87982 3.67968L7.09914 4.12901ZM12.8446 4.08958L12.6262 4.53934L12.8446 4.08958ZM13.6249 4.53673L13.3474 4.9526L13.6249 4.53673ZM14.8802 4.61348L14.6304 4.18038L14.8802 4.61348ZM16.3458 5.00863L15.9121 5.25744L15.9121 5.25744L16.3458 5.00863ZM17.4649 6.95939L17.0312 7.2082L17.4649 6.95939ZM17.0695 8.41992L16.8205 7.98629L17.0695 8.41992ZM17.0197 9.99826C17.02 9.84047 17.0147 9.68279 17.0039 9.52553L16.0062 9.59423C16.0154 9.72797 16.0199 9.86208 16.0197 9.99629L17.0197 9.99826ZM17.0036 10.4422C17.0138 10.2947 17.0192 10.1469 17.0197 9.99885L16.0197 9.9957C16.0193 10.1217 16.0147 10.2477 16.006 10.3733L17.0036 10.4422ZM17.3181 11.1136C17.116 10.9976 16.9828 10.7435 17.0036 10.4422L16.006 10.3733C15.9637 10.9854 16.2283 11.6411 16.8202 11.9809L17.3181 11.1136ZM17.8984 13.257C18.3299 12.5049 18.0701 11.5453 17.3181 11.1136L16.8202 11.9809C17.0934 12.1377 17.1878 12.4862 17.031 12.7594L17.8984 13.257ZM16.7795 15.2076L17.8984 13.257L17.031 12.7594L15.9121 14.71L16.7795 15.2076ZM14.6304 15.787C15.3837 16.2215 16.3467 15.9619 16.7795 15.2076L15.9121 14.71C15.7546 14.9844 15.4042 15.0789 15.1301 14.9208L14.6304 15.787ZM13.9024 15.8466C14.1482 15.6826 14.4302 15.6715 14.6304 15.787L15.1301 14.9208C14.5465 14.5841 13.8543 14.6765 13.3474 15.0147L13.9024 15.8466ZM13.0768 16.3205C13.3623 16.1813 13.6381 16.0229 13.9024 15.8466L13.3474 15.0147C13.1204 15.1662 12.8835 15.3022 12.6383 15.4218L13.0768 16.3205ZM12.6558 16.9256C12.6558 16.6922 12.8086 16.4514 13.0768 16.3205L12.6383 15.4218C12.0869 15.6908 11.6558 16.2471 11.6558 16.9256H12.6558ZM11.0814 18.5C11.9509 18.5 12.6558 17.7951 12.6558 16.9256H11.6558C11.6558 17.2428 11.3987 17.5 11.0814 17.5V18.5ZM8.8392 18.5H11.0814V17.5H8.8392V18.5ZM7.30052 16.9613C7.30052 17.8111 7.98941 18.5 8.8392 18.5V17.5C8.54169 17.5 8.30052 17.2588 8.30052 16.9613H7.30052ZM6.90446 16.3937C7.15758 16.5161 7.30052 16.7429 7.30052 16.9613H8.30052C8.30052 16.2986 7.87988 15.7545 7.33964 15.4934L6.90446 16.3937ZM6.05325 15.9071C6.32542 16.0887 6.60983 16.2513 6.90446 16.3937L7.33964 15.4934C7.08654 15.371 6.8422 15.2313 6.60837 15.0753L6.05325 15.9071ZM5.3254 15.8476C5.52565 15.7321 5.80762 15.7431 6.05325 15.9071L6.60837 15.0753C6.10143 14.737 5.40927 14.6448 4.82576 14.9813L5.3254 15.8476ZM3.17607 15.2678C3.60879 16.0224 4.57194 16.2822 5.3254 15.8476L4.82577 14.9813C4.55155 15.1395 4.20103 15.045 4.04355 14.7704L3.17607 15.2678ZM2.05812 13.3184L3.17607 15.2678L4.04355 14.7704L2.92559 12.8209L2.05812 13.3184ZM2.63864 11.1737C1.88635 11.6058 1.62651 12.5658 2.05812 13.3184L2.92559 12.8209C2.76859 12.5472 2.86311 12.198 3.13676 12.0408L2.63864 11.1737ZM2.95321 10.5025C2.97412 10.8033 2.841 11.0574 2.63864 11.1737L3.13676 12.0408C3.72824 11.701 3.99338 11.0457 3.9508 10.4332L2.95321 10.5025ZM2.95322 9.55798C2.93135 9.87245 2.93135 10.1881 2.95321 10.5025L3.9508 10.4332C3.93215 10.1649 3.93215 9.89563 3.95081 9.62736L2.95322 9.55798ZM2.63879 8.88741C2.84103 9.00349 2.97412 9.25737 2.95322 9.55798L3.95081 9.62736C3.9934 9.0149 3.72815 8.35966 3.13659 8.02012L2.63879 8.88741ZM2.058 6.74323C1.62645 7.49573 1.88645 8.45559 2.63879 8.88741L3.13659 8.02012C2.86312 7.86315 2.76861 7.51425 2.92547 7.24071L2.058 6.74323ZM3.17607 4.79361L2.058 6.74323L2.92547 7.24071L4.04355 5.29109L3.17607 4.79361ZM5.32541 4.21387C4.57194 3.77927 3.60879 4.03907 3.17607 4.79361L4.04355 5.29109C4.20103 5.01648 4.55155 4.92194 4.82576 5.0801L5.32541 4.21387ZM6.05326 4.15437C5.80762 4.31831 5.52565 4.32937 5.32541 4.21387L4.82576 5.0801C5.40927 5.41667 6.10143 5.32447 6.60837 4.98615L6.05326 4.15437ZM6.87982 3.67968C6.59397 3.81921 6.31783 3.9778 6.05326 4.15437L6.60837 4.98615C6.83567 4.83445 7.07291 4.6982 7.31847 4.57834L6.87982 3.67968ZM7.30052 3.07466C7.30052 3.30806 7.14781 3.54887 6.87982 3.67968L7.31847 4.57834C7.86977 4.30923 8.30052 3.75294 8.30052 3.07466H7.30052ZM8.87517 1.5C8.00552 1.5 7.30052 2.205 7.30052 3.07466H8.30052C8.30052 2.75728 8.5578 2.5 8.87517 2.5V1.5ZM11.1007 1.5H8.87517V2.5H11.1007V1.5ZM12.6558 3.05516C12.6558 2.19627 11.9595 1.5 11.1007 1.5V2.5C11.4073 2.5 11.6558 2.74856 11.6558 3.05516H12.6558ZM13.063 3.63982C12.8032 3.51361 12.6558 3.28041 12.6558 3.05516H11.6558C11.6558 3.72492 12.0809 4.27453 12.6262 4.53934L13.063 3.63982ZM13.9025 4.12086C13.634 3.94161 13.3535 3.78089 13.063 3.63982L12.6262 4.53934C12.8757 4.66053 13.1166 4.79861 13.3474 4.9526L13.9025 4.12086ZM14.6304 4.18038C14.4301 4.29588 14.1482 4.28482 13.9025 4.12086L13.3474 4.9526C13.8543 5.29097 14.5465 5.38321 15.1301 5.04658L14.6304 4.18038ZM16.7795 4.75983C16.3467 4.00546 15.3837 3.74581 14.6304 4.18038L15.1301 5.04658C15.4042 4.88845 15.7546 4.98293 15.9121 5.25744L16.7795 4.75983ZM17.8986 6.71059L16.7795 4.75983L15.9121 5.25744L17.0312 7.2082L17.8986 6.71059ZM17.3184 8.85355C18.0703 8.42194 18.33 7.46259 17.8986 6.71059L17.0312 7.2082C17.1879 7.48124 17.0935 7.82957 16.8205 7.98629L17.3184 8.85355ZM17.0039 9.52553C16.9831 9.22376 17.1164 8.96953 17.3184 8.85355L16.8205 7.98629C16.2283 8.32626 15.9641 8.98234 16.0062 9.59423L17.0039 9.52553ZM9.97742 13.4068C11.8604 13.4068 13.3869 11.8803 13.3869 9.99733H12.3869C12.3869 11.328 11.3081 12.4068 9.97742 12.4068V13.4068ZM6.56797 9.99733C6.56797 11.8803 8.09443 13.4068 9.97742 13.4068V12.4068C8.64672 12.4068 7.56797 11.328 7.56797 9.99733H6.56797ZM9.97742 6.58789C8.09443 6.58789 6.56797 8.11435 6.56797 9.99733H7.56797C7.56797 8.66664 8.64672 7.58789 9.97742 7.58789V6.58789ZM13.3869 9.99733C13.3869 8.11435 11.8604 6.58789 9.97742 6.58789V7.58789C11.3081 7.58789 12.3869 8.66664 12.3869 9.99733H13.3869Z" fill="#A0A2A2"/>
</svg>
