<svg width="24" height="24" viewBox="0 0 24 24" fill="none" xmlns="http://www.w3.org/2000/svg">
<mask id="mask0_2501_18012" style="mask-type:alpha" maskUnits="userSpaceOnUse" x="0" y="0" width="24" height="24">
<rect width="24" height="24" fill="#D9D9D9"/>
</mask>
<g mask="url(#mask0_2501_18012)">
<path d="M2 19V16H17V19H2ZM18 19V16H19.5V19H18ZM20.5 19V16H22V19H20.5ZM18 15V13.7C18 13.05 17.8083 12.5542 17.425 12.2125C17.0417 11.8708 16.5833 11.7 16.05 11.7H14.5C13.5667 11.7 12.775 11.375 12.125 10.725C11.475 10.075 11.15 9.28333 11.15 8.35C11.15 7.41667 11.475 6.625 12.125 5.975C12.775 5.325 13.5667 5 14.5 5V6.5C14 6.5 13.5667 6.675 13.2 7.025C12.8333 7.375 12.65 7.81667 12.65 8.35C12.65 8.88333 12.8333 9.325 13.2 9.675C13.5667 10.025 14 10.2 14.5 10.2H16.05C16.9833 10.2 17.7917 10.5 18.475 11.1C19.1583 11.7 19.5 12.45 19.5 13.35V15H18ZM20.5 15V12.75C20.5 11.65 20.1167 10.7 19.35 9.9C18.5833 9.1 17.6333 8.7 16.5 8.7V7.2C17 7.2 17.4333 7.01667 17.8 6.65C18.1667 6.28333 18.35 5.85 18.35 5.35C18.35 4.85 18.1667 4.41667 17.8 4.05C17.4333 3.68333 17 3.5 16.5 3.5V2C17.4333 2 18.225 2.325 18.875 2.975C19.525 3.625 19.85 4.41667 19.85 5.35C19.85 5.83333 19.7583 6.27083 19.575 6.6625C19.3917 7.05417 19.15 7.41667 18.85 7.75C19.7833 8.18333 20.5417 8.85 21.125 9.75C21.7083 10.65 22 11.65 22 12.75V15H20.5Z" fill="currentColor"/>
</g>
</svg>
