<?xml version="1.0" encoding="UTF-8" standalone="no"?>
<!-- Created with Inkscape (http://www.inkscape.org/) -->

<svg
   version="1.1"
   id="svg2"
   width="4000"
   height="4000"
   viewBox="0 0 4000 4000"
   sodipodi:docname="TiXX 20LOGO_2.ai"
   xmlns:inkscape="http://www.inkscape.org/namespaces/inkscape"
   xmlns:sodipodi="http://sodipodi.sourceforge.net/DTD/sodipodi-0.dtd"
   xmlns="http://www.w3.org/2000/svg"
   xmlns:svg="http://www.w3.org/2000/svg">
  <defs
     id="defs6">
    <clipPath
       clipPathUnits="userSpaceOnUse"
       id="clipPath30">
      <path
         d="M 0,3000 H 3000 V 0 H 0 Z"
         id="path28" />
    </clipPath>
  </defs>
  <sodipodi:namedview
     id="namedview4"
     pagecolor="#ffffff"
     bordercolor="#000000"
     borderopacity="0.25"
     inkscape:showpageshadow="2"
     inkscape:pageopacity="0.0"
     inkscape:pagecheckerboard="0"
     inkscape:deskcolor="#d1d1d1" />
  <g
     id="g8"
     inkscape:groupmode="layer"
     inkscape:label="TiXX 20LOGO_2"
     transform="matrix(1.3333333,0,0,-1.3333333,0,4000)">
    <g
       id="g10"
       transform="translate(122.6855,1168.2131)">
      <path
         d="m 0,0 v -118.512 -30.465 -47.489 h 279.426 v -493.857 h 7.103 235.562 8.68 v 493.857 h 277.85 v 47.489 30.465 V 0 Z"
         style="fill:#000000;fill-opacity:1;fill-rule:nonzero;stroke:none"
         id="path12" />
    </g>
    <path
       d="M 1212.654,477.89 H 961.309 v 512.7 h 251.345 z m 0,0 H 961.309 v 512.7 h 251.345 z m 0,564.575 H 961.309 v 125.61 h 251.345 z"
       style="fill:#000000;fill-opacity:1;fill-rule:nonzero;stroke:none"
       id="path14" />
    <g
       id="g16"
       transform="translate(1442.061,1168.2131)">
      <path
         d="M 0,0 175.215,-193.15 351.638,0 h 276.72 L 316.594,-348.192 628.358,-690.323 H 341.969 L 175.215,-504.966 9.665,-690.323 H -276.72 L 35.044,-348.192 -276.72,0 Z"
         style="fill:#000000;fill-opacity:1;fill-rule:nonzero;stroke:none"
         id="path18" />
    </g>
    <g
       id="g20"
       transform="translate(2248.9563,1168.2131)">
      <path
         d="M 0,0 175.215,-193.15 351.638,0 h 276.72 L 316.594,-348.192 628.358,-690.323 H 341.969 L 175.215,-504.966 9.665,-690.323 H -276.72 L 35.044,-348.192 -276.72,0 Z"
         style="fill:#000000;fill-opacity:1;fill-rule:nonzero;stroke:none"
         id="path22" />
    </g>
    <g
       id="g24">
      <g
         id="g26"
         clip-path="url(#clipPath30)">
        <g
           id="g32"
           transform="translate(2359.1748,2010.6656)">
          <path
             d="m 0,0 c -92.017,-79.27 -320.074,-141.831 -440.181,-169.237 -261.735,-59.722 -528.771,-80.207 -796.876,-68.557 -116.211,5.05 -410.255,31.522 -494.901,111.468 -57.714,54.508 36.97,111.699 80.004,135.902 124.341,69.931 271.563,103.971 409.738,135.984 3.193,1.919 9.761,-1.768 9.761,-3.961 V -3.137 c 173.191,77.427 358.203,146.152 547.387,173.248 191.767,27.466 447.282,20.423 629.598,-49.03 C 6.215,97.582 72.894,62.797 0,0 m 123.605,150.849 c -11.844,151.053 -245.264,225.548 -368.229,253.375 -78.324,17.725 -158.155,28.184 -238.249,34.466 v 167.589 c -224.281,-13.773 -447.981,-67.512 -659.75,-140.108 -146.374,-50.179 -299.351,-113.838 -433.152,-191.5 -87.21,-50.618 -238.902,-149.212 -262.204,-252.754 0.073,-143.633 -13.359,-301.113 -4.037,-444.173 11.003,-168.869 281.13,-242.467 417.031,-268.562 353.986,-67.973 814.441,-25.621 1153.123,97.309 129.706,47.078 383.054,162.289 395.467,320.596 -8.303,137.662 10.682,287.551 0,423.762"
             style="fill:#000000;fill-opacity:1;fill-rule:nonzero;stroke:none"
             id="path34" />
        </g>
      </g>
    </g>
  </g>
</svg>
