<?xml version="1.0" encoding="UTF-8" standalone="no"?>
<!-- Created with Inkscape (http://www.inkscape.org/) -->

<svg
   version="1.1"
   id="svg2"
   width="4000"
   height="4000"
   viewBox="0 0 4000 4000"
   sodipodi:docname="TiXX 20LOGO_1.ai"
   xmlns:inkscape="http://www.inkscape.org/namespaces/inkscape"
   xmlns:sodipodi="http://sodipodi.sourceforge.net/DTD/sodipodi-0.dtd"
   xmlns="http://www.w3.org/2000/svg"
   xmlns:svg="http://www.w3.org/2000/svg">
  <defs
     id="defs6" />
  <sodipodi:namedview
     id="namedview4"
     pagecolor="#ffffff"
     bordercolor="#000000"
     borderopacity="0.25"
     inkscape:showpageshadow="2"
     inkscape:pageopacity="0.0"
     inkscape:pagecheckerboard="0"
     inkscape:deskcolor="#d1d1d1" />
  <g
     id="g8"
     inkscape:groupmode="layer"
     inkscape:label="TiXX 20LOGO_1"
     transform="matrix(1.3333333,0,0,-1.3333333,0,4000)">
    <g
       id="g10"
       transform="translate(122.6855,1845.1615)">
      <path
         d="m 0,0 v -118.512 -30.465 -47.489 h 279.426 v -493.857 h 7.103 235.562 8.68 v 493.857 h 277.85 v 47.489 30.465 V 0 Z"
         style="fill:#000000;fill-opacity:1;fill-rule:nonzero;stroke:none"
         id="path12" />
    </g>
    <path
       d="M 1212.654,1154.839 H 961.309 v 512.7 h 251.345 z m 0,0 H 961.309 v 512.7 h 251.345 z m 0,564.574 H 961.309 v 125.61 h 251.345 z"
       style="fill:#000000;fill-opacity:1;fill-rule:nonzero;stroke:none"
       id="path14" />
    <g
       id="g16"
       transform="translate(1442.061,1845.1615)">
      <path
         d="M 0,0 175.215,-193.151 351.638,0 h 276.72 L 316.594,-348.193 628.358,-690.323 H 341.969 L 175.215,-504.966 9.665,-690.323 H -276.72 L 35.044,-348.193 -276.72,0 Z"
         style="fill:#000000;fill-opacity:1;fill-rule:nonzero;stroke:none"
         id="path18" />
    </g>
    <g
       id="g20"
       transform="translate(2248.9563,1845.1615)">
      <path
         d="M 0,0 175.215,-193.151 351.638,0 h 276.72 L 316.594,-348.193 628.358,-690.323 H 341.969 L 175.215,-504.966 9.665,-690.323 H -276.72 L 35.044,-348.193 -276.72,0 Z"
         style="fill:#000000;fill-opacity:1;fill-rule:nonzero;stroke:none"
         id="path22" />
    </g>
  </g>
</svg>
