<svg width="21" height="21" viewBox="0 0 21 21" fill="none" xmlns="http://www.w3.org/2000/svg">
<path d="M16.5 11.9062C17.5561 12.6953 18.5 14.6821 18.5 15.9062C18.5 16.2876 18.2218 16.5967 17.8785 16.5967H17.5M13.5 8.67189C14.1832 8.27668 14.6429 7.538 14.6429 6.69196C14.6429 5.84593 14.1832 5.10725 13.5 4.71204M3.12148 16.5967H14.069C14.4122 16.5967 14.6905 16.2876 14.6905 15.9062C14.6905 13.509 12.6878 11.5657 8.59524 11.5657C4.50272 11.5657 2.5 13.509 2.5 15.9062C2.5 16.2876 2.77824 16.5967 3.12148 16.5967ZM10.881 6.69196C10.881 7.95433 9.8576 8.97768 8.59524 8.97768C7.33287 8.97768 6.30952 7.95433 6.30952 6.69196C6.30952 5.4296 7.33287 4.40625 8.59524 4.40625C9.8576 4.40625 10.881 5.4296 10.881 6.69196Z" stroke="currentColor" stroke-width="1.5" stroke-linecap="round"/>
</svg>
