<svg width="189" height="183" viewBox="0 0 189 183" fill="none" xmlns="http://www.w3.org/2000/svg">
<mask id="mask0_3835_14051" style="mask-type:luminance" maskUnits="userSpaceOnUse" x="31" y="41" width="137" height="140">
<path d="M154.203 41.9335L31.8691 54.7148L44.9622 180.033L167.296 167.251L154.203 41.9335Z" fill="white"/>
</mask>
<g mask="url(#mask0_3835_14051)">
<path d="M106.255 171.682C73.8471 175.075 44.7673 150.89 41.3023 117.664C37.8372 84.4381 61.2992 54.7543 93.7069 51.3622" stroke="#454545" stroke-miterlimit="10"/>
<path d="M106.257 171.682C84.6531 173.944 64.3303 148.843 60.8652 115.618C57.4002 82.3916 72.1052 53.6243 93.7091 51.363" stroke="#454545" stroke-miterlimit="10"/>
<path d="M106.258 171.682C95.4536 172.812 83.8878 146.795 80.4227 113.569C76.9576 80.3432 82.9057 52.4926 93.7096 51.3617" stroke="#454545" stroke-miterlimit="10"/>
<path d="M106.257 171.682C106.257 171.682 103.448 144.749 99.9828 111.522C96.5179 78.2966 93.709 51.3625 93.709 51.3625" stroke="#454545" stroke-miterlimit="10"/>
<path d="M106.257 171.682C117.06 170.552 123.009 142.701 119.544 109.475C116.079 76.249 104.513 50.2315 93.709 51.3624" stroke="#454545" stroke-miterlimit="10"/>
<path d="M106.257 171.682C127.861 169.421 142.565 140.654 139.101 107.427C135.635 74.2021 115.312 49.1012 93.709 51.3625" stroke="#454545" stroke-miterlimit="10"/>
<path d="M106.257 171.682C138.664 168.29 162.127 138.607 158.661 105.38C155.197 72.1547 126.117 47.9704 93.709 51.3626" stroke="#454545" stroke-miterlimit="10"/>
<path d="M158.658 105.381C162.123 138.607 138.661 168.29 106.253 171.682C73.8456 175.075 44.7659 150.89 41.3008 117.665" stroke="#454545" stroke-miterlimit="10"/>
<path d="M158.658 105.381C160.967 127.53 136.569 148.236 104.162 151.628C71.7541 155.02 43.6107 139.814 41.3008 117.665" stroke="#454545" stroke-miterlimit="10"/>
<path d="M158.658 105.381C159.813 116.457 134.479 128.185 102.07 131.577C69.663 134.97 42.456 128.742 41.3008 117.665" stroke="#454545" stroke-miterlimit="10"/>
<path d="M158.658 105.381C158.658 105.381 132.387 108.131 99.9796 111.523C67.5716 114.915 41.3008 117.665 41.3008 117.665" stroke="#454545" stroke-miterlimit="10"/>
<path d="M158.659 105.382C157.504 94.305 130.296 88.0768 97.8887 91.4689C65.481 94.861 40.1468 106.593 41.3016 117.665" stroke="#454545" stroke-miterlimit="10"/>
<path d="M158.661 105.38C156.351 83.2307 128.207 68.0245 95.7997 71.4166C63.392 74.8087 38.9938 95.5145 41.3037 117.664" stroke="#454545" stroke-miterlimit="10"/>
<path d="M158.659 105.38C155.194 72.1543 126.115 47.97 93.7068 51.3621C61.2991 54.7542 37.8372 84.438 41.3023 117.664" stroke="#454545" stroke-miterlimit="10"/>
<path d="M89.8965 51.9606C90.4697 50.3526 91.9071 49.2443 93.5451 49.1537C95.046 49.0693 96.4913 49.8517 97.3044 51.1852" stroke="#454545" stroke-miterlimit="10"/>
<path d="M46.1005 165.527C47.1352 165.449 47.9114 164.546 47.8342 163.509C47.757 162.473 46.8556 161.695 45.8208 161.773C44.7861 161.85 44.0099 162.753 44.0871 163.79C44.1643 164.826 45.0657 165.604 46.1005 165.527Z" fill="#454545"/>
<path d="M66.2303 154.334L66.7046 157.219C67.1288 159.798 69.1471 161.82 71.7222 162.245L74.6013 162.72L71.7222 163.196C69.1471 163.62 67.1288 165.642 66.7046 168.222L66.2303 171.106L65.7561 168.222C65.332 165.642 63.3137 163.62 60.7386 163.196L57.8594 162.72L60.7386 162.245C63.3137 161.82 65.332 159.798 65.7561 157.219L66.2303 154.334Z" fill="#7B7B7B"/>
<path d="M131.6 46.9999L132.381 51.7507C133.08 55.9999 136.404 59.3302 140.646 60.0301L145.387 60.8126L140.646 61.5951C136.404 62.295 133.08 65.6254 132.381 69.8746L131.6 74.6253L130.819 69.8746C130.12 65.6254 126.796 62.295 122.554 61.5951L117.812 60.8126L122.554 60.0301C126.796 59.3302 130.12 55.9999 130.819 51.7507L131.6 46.9999Z" fill="#7B7B7B"/>
<path d="M154.508 74.896C155.104 74.8514 155.551 74.3311 155.507 73.7339C155.462 73.1367 154.943 72.6887 154.347 72.7333C153.751 72.7778 153.304 73.2981 153.348 73.8953C153.393 74.4925 153.912 74.9405 154.508 74.896Z" fill="#454545"/>
</g>
<path d="M25.8011 154.8C26.6272 154.738 27.247 154.019 27.1853 153.192C27.1237 152.366 26.404 151.747 25.5779 151.808C24.7517 151.87 24.132 152.59 24.1937 153.416C24.2553 154.242 24.975 154.862 25.8011 154.8Z" fill="#454545"/>
<path d="M168.719 53.1027C169.545 53.0411 170.165 52.3214 170.103 51.4953C170.042 50.6691 169.322 50.0494 168.496 50.111C167.67 50.1727 167.05 50.8924 167.112 51.7185C167.173 52.5446 167.893 53.1644 168.719 53.1027Z" fill="#454545"/>
<path d="M124.258 40.2743C124.863 40.2291 125.317 39.7018 125.272 39.0965C125.227 38.4912 124.699 38.0371 124.094 38.0823C123.489 38.1274 123.035 38.6548 123.08 39.2601C123.125 39.8654 123.652 40.3195 124.258 40.2743Z" fill="#454545"/>
<path d="M93.4053 48.8255L89.5 7" stroke="#454545" stroke-linecap="round"/>
<path d="M23.2299 110.248L21.1895 115.89" stroke="#454545" stroke-linecap="round"/>
<path d="M18.392 126.572L16.3516 132.214" stroke="#454545" stroke-linecap="round"/>
<path d="M23.8574 123.238L29.4776 125.339" stroke="#454545" stroke-linecap="round"/>
<path d="M8.81055 117.798L14.4308 119.899" stroke="#454545" stroke-linecap="round"/>
<path d="M167.33 82.6694L171.35 82.371" stroke="#454545" stroke-linecap="round"/>
<path d="M177.361 82.0444L181.381 81.746" stroke="#454545" stroke-linecap="round"/>
<path d="M174.713 85.4248L174.965 89.4483" stroke="#454545" stroke-linecap="round"/>
<path d="M174.121 75.3271L174.373 79.3505" stroke="#454545" stroke-linecap="round"/>
</svg>
