<svg width="82" height="49" viewBox="0 0 82 49" fill="none" xmlns="http://www.w3.org/2000/svg">
<path fill-rule="evenodd" clip-rule="evenodd" d="M0.652954 0.0136719L81.653 0.0136719V16.3561C77.3364 16.3561 73.8372 19.8553 73.8372 24.1718C73.8372 28.4884 77.3364 31.9876 81.653 31.9876V48.3295L0.652954 48.3295L0.652954 31.9876C4.9695 31.9876 8.46874 28.4884 8.46874 24.1718C8.46874 19.8553 4.9695 16.3561 0.652954 16.3561L0.652954 0.0136719ZM64.1754 7.79297C64.1754 8.89754 63.28 9.79297 62.1754 9.79297C61.0709 9.79297 60.1754 8.89754 60.1754 7.79297C60.1754 6.6884 61.0709 5.79297 62.1754 5.79297C63.28 5.79297 64.1754 6.6884 64.1754 7.79297ZM62.1754 25.793C63.28 25.793 64.1754 24.8975 64.1754 23.793C64.1754 22.6884 63.28 21.793 62.1754 21.793C61.0709 21.793 60.1754 22.6884 60.1754 23.793C60.1754 24.8975 61.0709 25.793 62.1754 25.793ZM64.1754 15.793C64.1754 16.8975 63.28 17.793 62.1754 17.793C61.0709 17.793 60.1754 16.8975 60.1754 15.793C60.1754 14.6884 61.0709 13.793 62.1754 13.793C63.28 13.793 64.1754 14.6884 64.1754 15.793ZM62.1754 33.793C63.28 33.793 64.1754 32.8975 64.1754 31.793C64.1754 30.6884 63.28 29.793 62.1754 29.793C61.0709 29.793 60.1754 30.6884 60.1754 31.793C60.1754 32.8975 61.0709 33.793 62.1754 33.793ZM64.1754 39.793C64.1754 40.8975 63.28 41.793 62.1754 41.793C61.0709 41.793 60.1754 40.8975 60.1754 39.793C60.1754 38.6884 61.0709 37.793 62.1754 37.793C63.28 37.793 64.1754 38.6884 64.1754 39.793ZM19.1754 9.79297C20.28 9.79297 21.1754 8.89754 21.1754 7.79297C21.1754 6.6884 20.28 5.79297 19.1754 5.79297C18.0709 5.79297 17.1754 6.6884 17.1754 7.79297C17.1754 8.89754 18.0709 9.79297 19.1754 9.79297ZM21.1754 23.793C21.1754 24.8975 20.28 25.793 19.1754 25.793C18.0709 25.793 17.1754 24.8975 17.1754 23.793C17.1754 22.6884 18.0709 21.793 19.1754 21.793C20.28 21.793 21.1754 22.6884 21.1754 23.793ZM19.1754 17.793C20.28 17.793 21.1754 16.8975 21.1754 15.793C21.1754 14.6884 20.28 13.793 19.1754 13.793C18.0709 13.793 17.1754 14.6884 17.1754 15.793C17.1754 16.8975 18.0709 17.793 19.1754 17.793ZM21.1754 31.793C21.1754 32.8975 20.28 33.793 19.1754 33.793C18.0709 33.793 17.1754 32.8975 17.1754 31.793C17.1754 30.6884 18.0709 29.793 19.1754 29.793C20.28 29.793 21.1754 30.6884 21.1754 31.793ZM19.1754 41.793C20.28 41.793 21.1754 40.8975 21.1754 39.793C21.1754 38.6884 20.28 37.793 19.1754 37.793C18.0709 37.793 17.1754 38.6884 17.1754 39.793C17.1754 40.8975 18.0709 41.793 19.1754 41.793Z" fill="#2F2F30"/>
</svg>
