<svg width="84" height="47" viewBox="0 0 84 47" fill="none" xmlns="http://www.w3.org/2000/svg">
<path fill-rule="evenodd" clip-rule="evenodd" d="M0 4.00001C0 1.79087 1.79086 0 4 0H80C82.2091 0 84 1.79086 84 4V17.1202C83.9987 17.1202 83.9974 17.1202 83.9961 17.1202C80.527 17.1202 77.7146 19.9326 77.7146 23.4018C77.7146 26.871 80.527 29.6833 83.9961 29.6833C83.9974 29.6833 83.9987 29.6833 84 29.6833V42.3108C84 44.52 82.2091 46.3109 80 46.3109H4C1.79086 46.3109 0 44.52 0 42.3109V29.6832C3.39854 29.68 6.15265 26.8689 6.15265 23.4016C6.15265 19.9344 3.39854 17.1233 0 17.1201V4.00001Z" fill="currentColor"/>
</svg>
