<svg width="31" height="21" viewBox="0 0 31 21" fill="none" xmlns="http://www.w3.org/2000/svg">
<path d="M28.9131 9.49937C27.4713 10.7414 23.898 11.7216 22.0161 12.151C17.9152 13.0868 13.7311 13.4078 9.53036 13.2252C7.70952 13.1461 3.10232 12.7313 1.77605 11.4787C0.871761 10.6246 2.35531 9.72855 3.02958 9.34933C4.97781 8.25362 7.28454 7.72027 9.44953 7.21867C9.49956 7.18861 9.60247 7.24638 9.60247 7.28074V9.54852C12.3161 8.33536 15.2149 7.25855 18.1791 6.834C21.1838 6.40365 25.1873 6.514 28.0439 7.60222C29.0105 7.97041 30.0552 8.51544 28.9131 9.49937ZM30.8498 7.13581C30.6642 4.76904 27.0069 3.60183 25.0802 3.16582C23.853 2.8881 22.6022 2.72422 21.3472 2.6258V-5.91278e-05C17.8331 0.215742 14.3281 1.05774 11.01 2.19521C8.71654 2.98144 6.31963 3.97887 4.22319 5.19571C2.85674 5.98882 0.479972 7.53363 0.114867 9.15596C0.116011 11.4065 -0.0944471 13.8739 0.0516138 16.1154C0.224013 18.7614 4.45647 19.9145 6.58583 20.3234C12.1322 21.3884 19.3468 20.7248 24.6534 18.7987C26.6857 18.0611 30.6553 16.2559 30.8498 13.7755C30.7197 11.6185 31.0171 9.27001 30.8498 7.13581Z" fill="currentColor"/>
</svg>
