<svg width="3673" height="921" viewBox="0 0 3673 921" fill="none" xmlns="http://www.w3.org/2000/svg">
<path d="M0 -2.7431e-05V158.016V198.636V261.955H372.568V920.431H382.039H696.121H707.695V261.955H1078.16V198.636V158.016V-2.7431e-05H0Z" fill="currentColor"/>
<path d="M1453.29 920.43H1118.16V236.83H1453.29V920.43ZM1453.29 920.43H1118.16V236.83H1453.29V920.43ZM1453.29 167.664H1118.16V0.184462H1453.29V167.664Z" fill="currentColor"/>
<path d="M1759.17 -2.7431e-05L1992.79 257.535L2228.02 -2.7431e-05H2596.98L2181.29 464.257L2596.98 920.431H2215.13L1992.79 673.288L1772.05 920.431H1390.21L1805.89 464.257L1390.21 -2.7431e-05H1759.17Z" fill="currentColor"/>
<path d="M2835.03 -2.7431e-05L3068.65 257.535L3303.88 -2.7431e-05H3672.84L3257.15 464.257L3672.84 920.431H3290.99L3068.65 673.288L2847.92 920.431H2466.07L2881.75 464.257L2466.07 -2.7431e-05H2835.03Z" fill="currentColor"/>
</svg>
