<svg width="26" height="26" viewBox="0 0 26 26" fill="none" xmlns="http://www.w3.org/2000/svg">
<path d="M24.1462 10.8333C24.1462 11.0013 24.0017 11.1458 23.8337 11.1458C22.5175 11.1458 21.4378 12.2255 21.4378 13.5416C21.4378 14.8578 22.5175 15.9375 23.8337 15.9375C24.0017 15.9375 24.1462 16.082 24.1462 16.25C24.1462 18.6215 23.7776 19.9946 22.9696 20.8026C22.1616 21.6106 20.7885 21.9791 18.417 21.9791H12.1462V20.0416C12.1462 19.3213 11.554 18.7291 10.8337 18.7291C10.1133 18.7291 9.52116 19.3213 9.52116 20.0416V21.9791H7.58366C5.21213 21.9791 3.83908 21.6106 3.03107 20.8026C2.22306 19.9946 1.85449 18.6215 1.85449 16.25V15.7083C1.85449 15.5403 1.99897 15.3958 2.16699 15.3958C3.48313 15.3958 4.56283 14.3161 4.56283 13C4.56283 11.6838 3.48313 10.6041 2.16699 10.6041C1.99897 10.6041 1.85449 10.4597 1.85449 10.2916V9.74998C1.85449 7.37845 2.22306 6.0054 3.03107 5.19739C3.83908 4.38938 5.21213 4.02081 7.58366 4.02081H9.52116V5.95831C9.52116 6.67862 10.1133 7.27081 10.8337 7.27081C11.554 7.27081 12.1462 6.67862 12.1462 5.95831V4.02081H18.417C20.7885 4.02081 22.1616 4.38938 22.9696 5.19739C23.7776 6.0054 24.1462 7.37845 24.1462 9.74998V10.8333ZM10.8337 16.6633C11.554 16.6633 12.1462 16.0711 12.1462 15.3508V10.6491C12.1462 9.92884 11.554 9.33665 10.8337 9.33665C10.1133 9.33665 9.52116 9.92884 9.52116 10.6491V15.3508C9.52116 16.0711 10.1133 16.6633 10.8337 16.6633Z" fill="none" stroke="currentColor"/>
<path d="M18.7269 13.3113L14.0083 13.3113M16.3913 15.6468L16.3913 10.9282" fill="none" stroke="currentColor" stroke-linecap="round"/>
</svg>
