<svg width="26" height="26" viewBox="0 0 26 26" fill="none" xmlns="http://www.w3.org/2000/svg">
<path d="M6.98552 9.71748C7.14961 8.23702 7.85395 6.86909 8.9637 5.87554C10.0735 4.882 11.5107 4.33264 13.0002 4.33264C14.4897 4.33264 15.9269 4.882 17.0367 5.87554C18.1464 6.86909 18.8508 8.23702 19.0148 9.71748L19.2879 12.1723L19.2943 12.2341C19.4342 13.4518 19.8308 14.6259 20.4579 15.6791L20.4903 15.7332L21.1154 16.7765C21.6842 17.7233 21.968 18.1967 21.9063 18.5856C21.8655 18.8438 21.7327 19.0785 21.5325 19.2465C21.2303 19.5 20.6778 19.5 19.5739 19.5H6.42652C5.32152 19.5 4.76902 19.5 4.46785 19.2476C4.267 19.0795 4.13384 18.8443 4.09302 18.5856C4.03235 18.1967 4.31618 17.7233 4.88385 16.7765L5.5111 15.7321L5.5436 15.678C6.17015 14.6251 6.56634 13.4513 6.70602 12.2341L6.71252 12.1723L6.98552 9.71748Z" fill="none" stroke="currentColor"/>
<path d="M9.86084 19.9398C10.0461 20.7458 10.4545 21.4587 11.0222 21.9657C11.5898 22.4748 12.2853 22.75 13.0003 22.75C13.7153 22.75 14.4108 22.4748 14.9785 21.9667C15.5462 21.4576 15.9535 20.7458 16.1398 19.9398" fill="none" stroke="currentColor" stroke-linecap="round"/>
</svg>
