<svg width="26" height="26" viewBox="0 0 26 26" fill="none" xmlns="http://www.w3.org/2000/svg">
<path fill-rule="evenodd" clip-rule="evenodd" d="M15.5739 4.31379C14.628 3.91289 13.6016 3.73855 12.5764 3.8047C11.5512 3.87084 10.5557 4.17562 9.66923 4.69474C8.78274 5.21386 8.02982 5.93294 7.47053 6.79465C6.91123 7.65635 6.56103 8.63682 6.44787 9.65787L6.17487 12.1116L6.16837 12.1723C6.03735 13.3133 5.6659 14.4136 5.07853 15.4006L5.04603 15.4537L4.42095 16.497L4.40578 16.523C4.13495 16.9747 3.90962 17.3495 3.76337 17.6594C3.61603 17.9725 3.50337 18.3115 3.5597 18.6701C3.62078 19.0578 3.82011 19.4103 4.12087 19.6625C4.40037 19.8965 4.7492 19.9723 5.09262 20.007C5.43387 20.0416 5.87045 20.0416 6.39803 20.0416H19.6039C20.1314 20.0416 20.568 20.0416 20.9093 20.007C21.2527 19.9723 21.6026 19.8965 21.881 19.6625C22.1818 19.4103 22.3811 19.0578 22.4422 18.6701C22.4996 18.3105 22.3859 17.9725 22.2385 17.6594C22.0923 17.3495 21.868 16.9747 21.5961 16.5219L21.5809 16.497L20.9548 15.4537L20.9234 15.4017C20.336 14.4147 19.9645 13.3144 19.8335 12.1734L19.827 12.1116L19.7815 11.6978C19.4414 11.8112 19.0857 11.8809 18.7144 11.9069L18.7502 12.2319L18.7578 12.2969C18.9063 13.5899 19.3272 14.8368 19.9928 15.9553L20.0253 16.0116L20.6525 17.0549C20.9429 17.538 21.1379 17.8663 21.2592 18.1209C21.3794 18.3787 21.3784 18.4708 21.3729 18.5C21.3527 18.6296 21.2861 18.7474 21.1855 18.8315C21.1617 18.851 21.0837 18.9009 20.8009 18.929C20.5193 18.9572 20.139 18.9583 19.5746 18.9583H6.42728C5.86395 18.9583 5.48153 18.9583 5.20203 18.929C4.9182 18.9009 4.8402 18.851 4.81637 18.8315C4.71606 18.7476 4.64949 18.6303 4.62895 18.5011C4.62462 18.4708 4.62245 18.3787 4.74378 18.122C4.86295 17.8663 5.06012 17.538 5.35045 17.0549L5.97553 16.0116L6.00912 15.9553C6.67485 14.8365 7.09577 13.5892 7.24412 12.2958L7.2517 12.2308L7.5247 9.77704C7.61569 8.95432 7.89087 8.16267 8.32981 7.4609C8.76874 6.75914 9.36015 6.16528 10.0601 5.72345C10.7601 5.28162 11.5506 5.00318 12.3729 4.9088C13.1952 4.81442 14.0283 4.90653 14.8101 5.17829C15.0268 4.85545 15.281 4.56656 15.5728 4.31162M17.5379 5.60079C17.199 5.75128 16.9043 5.98628 16.6821 6.28329C17.6825 7.17991 18.3196 8.41208 18.4729 9.7467C18.8574 9.73695 19.2171 9.62754 19.5259 9.44337C19.3162 7.97523 18.6164 6.62108 17.5401 5.60079" fill="currentColor"/>
<path d="M9.86133 19.9397C10.0466 20.7457 10.455 21.4585 11.0227 21.9655C11.5903 22.4747 12.2858 22.7499 13.0008 22.7499C13.7158 22.7499 14.4113 22.4747 14.979 21.9666C15.5467 21.4574 15.954 20.7457 16.1403 19.9397" fill="none" stroke="currentColor" stroke-linecap="round"/>
<path d="M18.4167 9.74984C19.6133 9.74984 20.5833 8.77979 20.5833 7.58317C20.5833 6.38655 19.6133 5.4165 18.4167 5.4165C17.22 5.4165 16.25 6.38655 16.25 7.58317C16.25 8.77979 17.22 9.74984 18.4167 9.74984Z" fill="#F2F862"/>
</svg>
