<svg width="26" height="26" viewBox="0 0 26 26" fill="none" xmlns="http://www.w3.org/2000/svg">
<path d="M13.0001 10.9503L8.40029 15.5502C8.29918 15.6513 8.17496 15.7054 8.02763 15.7127C7.88029 15.7199 7.74885 15.6657 7.63329 15.5502C7.51774 15.4346 7.45996 15.3068 7.45996 15.1667C7.45996 15.0266 7.51774 14.8987 7.63329 14.7832L12.388 10.0295C12.5628 9.85472 12.7668 9.76733 13.0001 9.76733C13.2334 9.76733 13.4378 9.85472 13.6133 10.0295L18.367 14.7832C18.4681 14.8843 18.5222 15.0089 18.5295 15.1569C18.5367 15.3035 18.4825 15.4346 18.367 15.5502C18.2514 15.6657 18.1236 15.7235 17.9835 15.7235C17.8434 15.7235 17.7155 15.6657 17.6 15.5502L13.0001 10.9503Z" fill="currentColor"/>
</svg>
