<svg width="26" height="26" viewBox="0 0 26 26" fill="none" xmlns="http://www.w3.org/2000/svg">
<path d="M10.9501 13L15.5499 17.5998C15.651 17.7009 15.7052 17.8252 15.7124 17.9725C15.7196 18.1198 15.6655 18.2513 15.5499 18.3668C15.4344 18.4824 15.3065 18.5402 15.1664 18.5402C15.0263 18.5402 14.8985 18.4824 14.7829 18.3668L10.0293 13.6121C9.85448 13.4373 9.76709 13.2333 9.76709 13C9.76709 12.7667 9.85448 12.5623 10.0293 12.3868L14.7829 7.63316C14.884 7.53205 15.0086 7.47788 15.1567 7.47066C15.3033 7.46344 15.4344 7.5176 15.5499 7.63316C15.6655 7.74871 15.7233 7.87655 15.7233 8.01666C15.7233 8.15677 15.6655 8.2846 15.5499 8.40016L10.9501 13Z" fill="currentColor"/>
</svg>
