<svg width="26" height="26" viewBox="0 0 26 26" fill="none" xmlns="http://www.w3.org/2000/svg">
<path d="M13.0002 15.5773C12.8839 15.5773 12.7763 15.5581 12.6774 15.5199C12.5784 15.4816 12.482 15.4151 12.3881 15.3205L7.63335 10.5669C7.53224 10.4657 7.47807 10.3415 7.47085 10.1942C7.46363 10.0469 7.5178 9.91541 7.63335 9.79986C7.74891 9.6843 7.87674 9.62653 8.01685 9.62653C8.15696 9.62653 8.2848 9.6843 8.40035 9.79986L13.0002 14.3997L17.6 9.79986C17.7011 9.69875 17.8257 9.64458 17.9738 9.63736C18.1204 9.63014 18.2515 9.6843 18.367 9.79986C18.4826 9.91541 18.5404 10.0432 18.5404 10.1834C18.5404 10.3235 18.4826 10.4513 18.367 10.5669L13.6123 15.3205C13.5184 15.4151 13.422 15.4816 13.323 15.5199C13.2248 15.5581 13.1172 15.5773 13.0002 15.5773Z" fill="currentColor"/>
</svg>
