<svg width="26" height="26" viewBox="0 0 26 26" fill="none" xmlns="http://www.w3.org/2000/svg">
<path d="M15.0499 13L10.4501 8.40017C10.349 8.29906 10.2948 8.17484 10.2876 8.02751C10.2804 7.88017 10.3345 7.74873 10.4501 7.63317C10.5656 7.51762 10.6935 7.45984 10.8336 7.45984C10.9737 7.45984 11.1015 7.51762 11.2171 7.63317L15.9707 12.3879C16.1455 12.5627 16.2329 12.7667 16.2329 13C16.2329 13.2333 16.1455 13.4377 15.9707 13.6132L11.2171 18.3668C11.116 18.468 10.9914 18.5221 10.8433 18.5293C10.6967 18.5366 10.5656 18.4824 10.4501 18.3668C10.3345 18.2513 10.2767 18.1235 10.2767 17.9833C10.2767 17.8432 10.3345 17.7154 10.4501 17.5998L15.0499 13Z" fill="currentColor"/>
</svg>
