<svg width="24" height="24" viewBox="0 0 24 24" fill="none" xmlns="http://www.w3.org/2000/svg">
<mask id="mask0_1496_6381" style="mask-type:alpha" maskUnits="userSpaceOnUse" x="0" y="0" width="24" height="24">
<rect width="24" height="24" fill="#D9D9D9"/>
</mask>
<g mask="url(#mask0_1496_6381)">
<path d="M6.30775 21.5C5.80258 21.5 5.375 21.325 5.025 20.975C4.675 20.625 4.5 20.1974 4.5 19.6923V4.30775C4.5 3.80258 4.675 3.375 5.025 3.025C5.375 2.675 5.80258 2.5 6.30775 2.5H17.702C18.207 2.5 18.6345 2.675 18.9845 3.025C19.3345 3.375 19.5095 3.80258 19.5095 4.30775V19.6923C19.5095 20.1974 19.3345 20.625 18.9845 20.975C18.6345 21.325 18.207 21.5 17.702 21.5H15.0288L14.0673 19.5578H9.94225L8.98075 21.5H6.30775ZM6.30775 20H8.0385L9 18.0577H15L15.9712 20H17.702C17.7917 20 17.8653 19.9712 17.923 19.9135C17.9807 19.8558 18.0095 19.7821 18.0095 19.6923V4.30775C18.0095 4.21792 17.9807 4.14417 17.923 4.0865C17.8653 4.02883 17.7917 4 17.702 4H6.30775C6.21792 4 6.14417 4.02883 6.0865 4.0865C6.02883 4.14417 6 4.21792 6 4.30775V19.6923C6 19.7821 6.02883 19.8558 6.0865 19.9135C6.14417 19.9712 6.21792 20 6.30775 20ZM8.34625 14.6827H15.6538V14.325C15.6538 13.5417 15.2708 12.9888 14.5048 12.6663C13.7388 12.3439 12.9038 12.1827 12 12.1827C11.0962 12.1827 10.2613 12.3439 9.49525 12.6663C8.72925 12.9888 8.34625 13.5417 8.34625 14.325V14.6827ZM12 10.875C12.4858 10.875 12.899 10.7048 13.2395 10.3645C13.5798 10.024 13.75 9.61083 13.75 9.125C13.75 8.63917 13.5798 8.226 13.2395 7.8855C12.899 7.54517 12.4858 7.375 12 7.375C11.5142 7.375 11.101 7.54517 10.7605 7.8855C10.4202 8.226 10.25 8.63917 10.25 9.125C10.25 9.61083 10.4202 10.024 10.7605 10.3645C11.101 10.7048 11.5142 10.875 12 10.875Z" fill="currentColor"/>
</g>
</svg>
