<svg width="19" height="19" viewBox="0 0 19 19" fill="none" xmlns="http://www.w3.org/2000/svg">
<path fill-rule="evenodd" clip-rule="evenodd" d="M18.265 9.70419C18.265 9.06601 18.2077 8.45237 18.1014 7.86328H9.625V11.3446H14.4686C14.26 12.4696 13.6259 13.4228 12.6727 14.061V16.3192H15.5814C17.2832 14.7524 18.265 12.4451 18.265 9.70419Z" fill="#4285F4"/>
<path fill-rule="evenodd" clip-rule="evenodd" d="M9.62476 18.5C12.0548 18.5 14.092 17.6941 15.5811 16.3195L12.6725 14.0613C11.8666 14.6013 10.8357 14.9204 9.62476 14.9204C7.28067 14.9204 5.29658 13.3372 4.58885 11.21H1.58203V13.5418C3.06294 16.4831 6.10658 18.5 9.62476 18.5Z" fill="#34A853"/>
<path fill-rule="evenodd" clip-rule="evenodd" d="M4.58909 11.2098C4.40909 10.6698 4.30682 10.093 4.30682 9.49983C4.30682 8.90664 4.40909 8.32983 4.58909 7.78983V5.45801H1.58227C0.972727 6.67301 0.625 8.04755 0.625 9.49983C0.625 10.9521 0.972727 12.3266 1.58227 13.5416L4.58909 11.2098Z" fill="#FBBC05"/>
<path fill-rule="evenodd" clip-rule="evenodd" d="M9.62476 4.07955C10.9461 4.07955 12.1325 4.53364 13.0652 5.42545L15.6466 2.84409C14.0879 1.39182 12.0507 0.5 9.62476 0.5C6.10658 0.5 3.06294 2.51682 1.58203 5.45818L4.58885 7.79C5.29658 5.66273 7.28067 4.07955 9.62476 4.07955Z" fill="#EA4335"/>
</svg>
