<svg width="26" height="26" viewBox="0 0 26 26" fill="none" xmlns="http://www.w3.org/2000/svg">
<path d="M6.49935 20.5833H10.499V15.0832C10.499 14.8355 10.5832 14.6278 10.7514 14.4603C10.919 14.292 11.1266 14.2078 11.3743 14.2078H14.6243C14.8721 14.2078 15.0801 14.292 15.2483 14.4603C15.4159 14.6278 15.4997 14.8355 15.4997 15.0832V20.5833H19.4993V11.1669C19.4993 11.0557 19.4752 10.9546 19.4268 10.8636C19.3784 10.7726 19.3123 10.6932 19.2285 10.6253L13.3958 6.2291C13.2846 6.13232 13.1525 6.08393 12.9993 6.08393C12.8462 6.08393 12.7144 6.13232 12.6039 6.2291L6.77018 10.6253C6.68713 10.6946 6.62104 10.774 6.57193 10.8636C6.52282 10.9532 6.49863 11.0543 6.49935 11.1669V20.5833ZM5.41602 20.5833V11.1669C5.41602 10.8896 5.47813 10.6271 5.60235 10.3793C5.72657 10.1316 5.89774 9.9276 6.11585 9.76726L11.9496 5.34943C12.2551 5.11615 12.6039 4.99951 12.9961 4.99951C13.3883 4.99951 13.7393 5.11615 14.0491 5.34943L19.8828 9.76618C20.1017 9.92651 20.2728 10.1309 20.3963 10.3793C20.5206 10.6271 20.5827 10.8896 20.5827 11.1669V20.5833C20.5827 20.8736 20.4747 21.1267 20.2588 21.3427C20.0428 21.5586 19.7897 21.6666 19.4993 21.6666H15.2917C15.0432 21.6666 14.8352 21.5828 14.6677 21.4153C14.5001 21.247 14.4163 21.039 14.4163 20.7913V15.2923H11.5823V20.7913C11.5823 21.0397 11.4986 21.2477 11.331 21.4153C11.1635 21.5828 10.9558 21.6666 10.7081 21.6666H6.49935C6.20902 21.6666 5.95588 21.5586 5.73993 21.3427C5.52399 21.1267 5.41602 20.8736 5.41602 20.5833Z" fill="currentColor" />
</svg>
