<svg width="26" height="26" viewBox="0 0 26 26" fill="none" xmlns="http://www.w3.org/2000/svg">
<path d="M13 6.70312C12.2367 6.70312 11.4905 6.92947 10.8558 7.35355C10.2212 7.77762 9.72651 8.38037 9.4344 9.08558C9.1423 9.79079 9.06587 10.5668 9.21478 11.3154C9.3637 12.0641 9.73127 12.7517 10.271 13.2915C10.8108 13.8312 11.4984 14.1988 12.2471 14.3477C12.9957 14.4966 13.7717 14.4202 14.4769 14.1281C15.1821 13.836 15.7849 13.3413 16.209 12.7067C16.633 12.072 16.8594 11.3258 16.8594 10.5625C16.8594 9.53893 16.4528 8.55728 15.729 7.83351C15.0052 7.10974 14.0236 6.70312 13 6.70312ZM13 13.2031C12.4777 13.2031 11.9672 13.0483 11.5329 12.7581C11.0987 12.4679 10.7602 12.0555 10.5604 11.573C10.3605 11.0905 10.3082 10.5596 10.4101 10.0473C10.512 9.53511 10.7635 9.06459 11.1328 8.6953C11.5021 8.326 11.9726 8.0745 12.4848 7.97261C12.9971 7.87072 13.528 7.92302 14.0105 8.12288C14.493 8.32274 14.9054 8.6612 15.1956 9.09545C15.4858 9.5297 15.6406 10.0402 15.6406 10.5625C15.6406 11.2628 15.3624 11.9345 14.8672 12.4297C14.372 12.9249 13.7003 13.2031 13 13.2031ZM13 1.82812C10.6843 1.83081 8.46426 2.7519 6.82683 4.38933C5.1894 6.02676 4.26831 8.24682 4.26562 10.5625C4.26562 13.7018 5.72203 17.0361 8.47742 20.2048C9.72106 21.6421 11.1207 22.9365 12.6506 24.0642C12.753 24.1359 12.875 24.1743 13 24.1743C13.125 24.1743 13.247 24.1359 13.3494 24.0642C14.8793 22.9365 16.2789 21.6421 17.5226 20.2048C20.278 17.0361 21.7344 13.7048 21.7344 10.5625C21.7317 8.24682 20.8106 6.02676 19.1732 4.38933C17.5357 2.7519 15.3157 1.83081 13 1.82812ZM13 22.8018C11.4766 21.6257 5.48438 16.6177 5.48438 10.5625C5.48438 8.56923 6.2762 6.6576 7.68565 5.24815C9.0951 3.8387 11.0067 3.04688 13 3.04688C14.9933 3.04688 16.9049 3.8387 18.3143 5.24815C19.7238 6.6576 20.5156 8.56923 20.5156 10.5625C20.5156 16.6177 14.5234 21.6257 13 22.8018Z" fill="currentColor"/>
</svg>
