<svg width="24" height="24" viewBox="0 0 24 24" fill="none" xmlns="http://www.w3.org/2000/svg">
<mask id="mask0_1847_4509" style="mask-type:alpha" maskUnits="userSpaceOnUse" x="0" y="0" width="24" height="24">
<rect width="24" height="24" fill="#D9D9D9"/>
</mask>
<g mask="url(#mask0_1847_4509)">
<path d="M11.2498 22.2V20.4692C9.16647 20.2551 7.41264 19.4358 5.9883 18.0115C4.56397 16.5872 3.74472 14.8333 3.53055 12.75H1.7998V11.25H3.53055C3.74472 9.16665 4.56397 7.41282 5.9883 5.98849C7.41264 4.56415 9.16647 3.7449 11.2498 3.53074V1.79999H12.7498V3.53074C14.8331 3.7449 16.587 4.56415 18.0113 5.98849C19.4356 7.41282 20.2549 9.16665 20.4691 11.25H22.1998V12.75H20.4691C20.2549 14.8333 19.4356 16.5872 18.0113 18.0115C16.587 19.4358 14.8331 20.2551 12.7498 20.4692V22.2H11.2498ZM11.9998 19C13.9331 19 15.5831 18.3167 16.9498 16.95C18.3165 15.5833 18.9998 13.9333 18.9998 12C18.9998 10.0667 18.3165 8.41665 16.9498 7.04999C15.5831 5.68332 13.9331 4.99999 11.9998 4.99999C10.0665 4.99999 8.41647 5.68332 7.0498 7.04999C5.68314 8.41665 4.9998 10.0667 4.9998 12C4.9998 13.9333 5.68314 15.5833 7.0498 16.95C8.41647 18.3167 10.0665 19 11.9998 19ZM11.9998 15.5C11.0373 15.5 10.2134 15.1572 9.52805 14.4717C8.84255 13.7864 8.4998 12.9625 8.4998 12C8.4998 11.0375 8.84255 10.2136 9.52805 9.52824C10.2134 8.84274 11.0373 8.49999 11.9998 8.49999C12.9623 8.49999 13.7862 8.84274 14.4716 9.52824C15.1571 10.2136 15.4998 11.0375 15.4998 12C15.4998 12.9625 15.1571 13.7864 14.4716 14.4717C13.7862 15.1572 12.9623 15.5 11.9998 15.5ZM11.9998 14C12.5498 14 13.0206 13.8042 13.4123 13.4125C13.804 13.0208 13.9998 12.55 13.9998 12C13.9998 11.45 13.804 10.9792 13.4123 10.5875C13.0206 10.1958 12.5498 9.99999 11.9998 9.99999C11.4498 9.99999 10.979 10.1958 10.5873 10.5875C10.1956 10.9792 9.9998 11.45 9.9998 12C9.9998 12.55 10.1956 13.0208 10.5873 13.4125C10.979 13.8042 11.4498 14 11.9998 14Z" fill="currentColor"/>
</g>
</svg>
