<svg width="26" height="26" viewBox="0 0 26 26" fill="none" xmlns="http://www.w3.org/2000/svg">
<path d="M13.0007 12.4583C15.0947 12.4583 16.7923 10.7607 16.7923 8.66667C16.7923 6.57259 15.0947 4.875 13.0007 4.875C10.9066 4.875 9.20898 6.57259 9.20898 8.66667C9.20898 10.7607 10.9066 12.4583 13.0007 12.4583Z" fill="none" stroke="currentColor" stroke-linecap="round"/>
<path d="M5.25401 18.3603C5.94626 15.8199 8.57443 14.625 11.2069 14.625H14.7928C17.4253 14.625 20.0534 15.8199 20.7468 18.3603C20.8975 18.9118 21.0044 19.4744 21.0663 20.0427C21.1313 20.6386 20.6395 21.125 20.0415 21.125H5.95818C5.36018 21.125 4.86943 20.6375 4.93335 20.0438C4.99526 19.4751 5.1032 18.9122 5.25401 18.3603Z" fill="none" stroke="currentColor" stroke-linecap="round"/>
</svg>
