<svg width="28" height="28" viewBox="0 0 28 28" fill="none" xmlns="http://www.w3.org/2000/svg">
<path d="M14.0003 13.4167C16.2555 13.4167 18.0837 11.5885 18.0837 9.33333C18.0837 7.07817 16.2555 5.25 14.0003 5.25C11.7452 5.25 9.91699 7.07817 9.91699 9.33333C9.91699 11.5885 11.7452 13.4167 14.0003 13.4167Z" fill="currentColor" stroke="currentColor" stroke-linecap="round"/>
<path d="M5.65851 19.7727C6.40401 17.0368 9.23434 15.75 12.0693 15.75H15.931C18.766 15.75 21.5963 17.0368 22.343 19.7727C22.5054 20.3666 22.6204 20.9724 22.6872 21.5845C22.7572 22.2262 22.2275 22.75 21.5835 22.75H6.41684C5.77284 22.75 5.24434 22.225 5.31317 21.5857C5.37985 20.9732 5.49609 20.367 5.65851 19.7727Z" fill="currentColor" stroke="currentColor" stroke-linecap="round"/>
</svg>
