<svg width="25" height="24" viewBox="0 0 25 24" fill="none" xmlns="http://www.w3.org/2000/svg">
<path d="M8.69792 3.36904C9.02929 3.36904 9.29792 3.10041 9.29792 2.76904C9.29792 2.43767 9.02929 2.16904 8.69792 2.16904V3.36904ZM2.50352 8.36345C2.50352 8.69482 2.77214 8.96345 3.10352 8.96345C3.43489 8.96345 3.70352 8.69482 3.70352 8.36345H2.50352ZM8.69792 21.8306C9.02929 21.8306 9.29792 21.562 9.29792 21.2306C9.29792 20.8992 9.02929 20.6306 8.69792 20.6306V21.8306ZM3.70352 15.6362C3.70352 15.3048 3.43489 15.0362 3.10352 15.0362C2.77214 15.0362 2.50352 15.3048 2.50352 15.6362H3.70352ZM15.9707 2.16904C15.6393 2.16904 15.3707 2.43767 15.3707 2.76904C15.3707 3.10041 15.6393 3.36904 15.9707 3.36904V2.16904ZM20.9651 8.36345C20.9651 8.69482 21.2337 8.96345 21.5651 8.96345C21.8964 8.96345 22.1651 8.69482 22.1651 8.36345H20.9651ZM22.1651 15.6362C22.1651 15.3048 21.8964 15.0362 21.5651 15.0362C21.2337 15.0362 20.9651 15.3048 20.9651 15.6362H22.1651ZM15.9707 20.6306C15.6393 20.6306 15.3707 20.8992 15.3707 21.2306C15.3707 21.562 15.6393 21.8306 15.9707 21.8306V20.6306ZM3.94268 11.4001C3.61131 11.4001 3.34268 11.6687 3.34268 12.0001C3.34268 12.3314 3.61131 12.6001 3.94268 12.6001V11.4001ZM20.7259 12.6001C21.0573 12.6001 21.3259 12.3314 21.3259 12.0001C21.3259 11.6687 21.0573 11.4001 20.7259 11.4001V12.6001ZM4.96832 3.36904H8.69792V2.16904H4.96832V3.36904ZM3.70352 8.36345V4.63385H2.50352V8.36345H3.70352ZM4.96832 2.16904C3.60705 2.16904 2.50352 3.27257 2.50352 4.63385H3.70352C3.70352 3.93531 4.26979 3.36904 4.96832 3.36904V2.16904ZM8.69792 20.6306H4.96832V21.8306H8.69792V20.6306ZM3.70352 19.3658V15.6362H2.50352V19.3658H3.70352ZM4.96832 20.6306C4.26979 20.6306 3.70352 20.0643 3.70352 19.3658H2.50352C2.50352 20.7271 3.60705 21.8306 4.96832 21.8306V20.6306ZM15.9707 3.36904H19.7003V2.16904H15.9707V3.36904ZM20.9651 4.63385V8.36345H22.1651V4.63385H20.9651ZM19.7003 3.36904C20.3988 3.36904 20.9651 3.93531 20.9651 4.63385H22.1651C22.1651 3.27257 21.0615 2.16904 19.7003 2.16904V3.36904ZM20.9651 15.6362V19.3658H22.1651V15.6362H20.9651ZM19.7003 20.6306H15.9707V21.8306H19.7003V20.6306ZM20.9651 19.3658C20.9651 20.0643 20.3988 20.6306 19.7003 20.6306V21.8306C21.0615 21.8306 22.1651 20.7271 22.1651 19.3658H20.9651ZM3.94268 12.6001H12.3343V11.4001H3.94268V12.6001ZM12.3343 12.6001H20.7259V11.4001H12.3343V12.6001Z" fill="currentColor"/>
</svg>
