<svg width="25" height="26" viewBox="0 0 25 26" fill="none" xmlns="http://www.w3.org/2000/svg">
<path d="M8.71227 4.63464C9.40263 4.63464 9.96227 4.075 9.96227 3.38464C9.96227 2.69429 9.40263 2.13464 8.71227 2.13464V3.38464V4.63464ZM1.63477 9.21215C1.63477 9.90251 2.19441 10.4621 2.88477 10.4621C3.57512 10.4621 4.13477 9.90251 4.13477 9.21215H2.88477H1.63477ZM8.71227 23.8654C9.40263 23.8654 9.96227 23.3058 9.96227 22.6154C9.96227 21.9251 9.40263 21.3654 8.71227 21.3654V22.6154V23.8654ZM4.13477 16.7879C4.13477 16.0976 3.57512 15.5379 2.88477 15.5379C2.19441 15.5379 1.63477 16.0976 1.63477 16.7879H2.88477H4.13477ZM16.288 2.13464C15.5977 2.13464 15.038 2.69429 15.038 3.38464C15.038 4.075 15.5977 4.63464 16.288 4.63464V3.38464V2.13464ZM20.8655 9.21215C20.8655 9.90251 21.4252 10.4621 22.1155 10.4621C22.8059 10.4621 23.3655 9.90251 23.3655 9.21215H22.1155H20.8655ZM23.3655 16.7879C23.3655 16.0976 22.8059 15.5379 22.1155 15.5379C21.4252 15.5379 20.8655 16.0976 20.8655 16.7879H22.1155H23.3655ZM16.288 21.3654C15.5977 21.3654 15.038 21.9251 15.038 22.6154C15.038 23.3058 15.5977 23.8654 16.288 23.8654V22.6154V21.3654ZM3.75889 11.7503C3.06854 11.7503 2.50889 12.3099 2.50889 13.0003C2.50889 13.6907 3.06854 14.2503 3.75889 14.2503V13.0003V11.7503ZM21.2414 14.2503C21.9318 14.2503 22.4914 13.6907 22.4914 13.0003C22.4914 12.3099 21.9318 11.7503 21.2414 11.7503V13.0003V14.2503ZM4.82727 3.38464V4.63464H8.71227V3.38464V2.13464H4.82727V3.38464ZM2.88477 9.21215H4.13477V5.32715H2.88477H1.63477V9.21215H2.88477ZM4.82727 3.38464V2.13464C3.0641 2.13464 1.63477 3.56398 1.63477 5.32715H2.88477H4.13477C4.13477 4.94469 4.44481 4.63464 4.82727 4.63464V3.38464ZM8.71227 22.6154V21.3654H4.82727V22.6154V23.8654H8.71227V22.6154ZM2.88477 20.6729H4.13477V16.7879H2.88477H1.63477V20.6729H2.88477ZM4.82727 22.6154V21.3654C4.44481 21.3654 4.13477 21.0554 4.13477 20.6729H2.88477H1.63477C1.63477 22.4361 3.0641 23.8654 4.82727 23.8654V22.6154ZM16.288 3.38464V4.63464H20.173V3.38464V2.13464H16.288V3.38464ZM22.1155 5.32715H20.8655V9.21215H22.1155H23.3655V5.32715H22.1155ZM20.173 3.38464V4.63464C20.5555 4.63464 20.8655 4.94469 20.8655 5.32715H22.1155H23.3655C23.3655 3.56398 21.9362 2.13464 20.173 2.13464V3.38464ZM22.1155 16.7879H20.8655V20.6729H22.1155H23.3655V16.7879H22.1155ZM20.173 22.6154V21.3654H16.288V22.6154V23.8654H20.173V22.6154ZM22.1155 20.6729H20.8655C20.8655 21.0554 20.5555 21.3654 20.173 21.3654V22.6154V23.8654C21.9362 23.8654 23.3655 22.4361 23.3655 20.6729H22.1155ZM3.75889 13.0003V14.2503H12.5002V13.0003V11.7503H3.75889V13.0003ZM12.5002 13.0003V14.2503H21.2414V13.0003V11.7503H12.5002V13.0003Z" fill="currentColor"/>
</svg>
