<svg width="18" height="18" viewBox="0 0 18 18" fill="none" xmlns="http://www.w3.org/2000/svg">
<mask id="mask0_1422_8511" style="mask-type:alpha" maskUnits="userSpaceOnUse" x="0" y="0" width="18" height="18">
<rect width="18" height="18" fill="#D9D9D9"/>
</mask>
<g mask="url(#mask0_1422_8511)">
<path d="M9 16.1247C8.11538 16.1247 7.28656 15.9573 6.51356 15.6227C5.74044 15.2881 5.06637 14.8333 4.49137 14.2583C3.91637 13.6833 3.46156 13.0092 3.12694 12.2361C2.79231 11.4631 2.625 10.6343 2.625 9.74966H3.75C3.75 11.2122 4.25938 12.4528 5.27813 13.4715C6.29688 14.4903 7.5375 14.9997 9 14.9997C10.4625 14.9997 11.7031 14.4903 12.7219 13.4715C13.7406 12.4528 14.25 11.2122 14.25 9.74966C14.25 8.28716 13.7406 7.04653 12.7219 6.02778C11.7031 5.00903 10.4625 4.49966 9 4.49966H8.80087L9.99225 5.69103L9.20194 6.50441L6.63469 3.93003L9.21638 1.35547L10.0067 2.16884L8.80087 3.37466H9C9.88462 3.37466 10.7134 3.54197 11.4864 3.87659C12.2596 4.21122 12.9336 4.66603 13.5086 5.24103C14.0836 5.81603 14.5384 6.49009 14.8731 7.26322C15.2077 8.03622 15.375 8.86503 15.375 9.74966C15.375 10.6343 15.2077 11.4631 14.8731 12.2361C14.5384 13.0092 14.0836 13.6833 13.5086 14.2583C12.9336 14.8333 12.2596 15.2881 11.4864 15.6227C10.7134 15.9573 9.88462 16.1247 9 16.1247Z" fill="currentColor"/>
</g>
</svg>
