<svg width="28" height="28" viewBox="0 0 28 28" fill="none" xmlns="http://www.w3.org/2000/svg">
<path d="M18.1453 18.1452C18.9102 17.3803 19.5169 16.4722 19.9309 15.4728C20.3448 14.4734 20.5579 13.4023 20.5579 12.3206C20.5579 11.2389 20.3448 10.1677 19.9309 9.16834C19.5169 8.16895 18.9102 7.26089 18.1453 6.496C17.3804 5.7311 16.4723 5.12435 15.4729 4.71039C14.4736 4.29644 13.4024 4.08337 12.3207 4.08337C11.239 4.08337 10.1678 4.29644 9.16846 4.71039C8.16908 5.12435 7.26101 5.7311 6.49612 6.496C4.95134 8.04077 4.0835 10.1359 4.0835 12.3206C4.0835 14.5052 4.95134 16.6004 6.49612 18.1452C8.04089 19.6899 10.1361 20.5578 12.3207 20.5578C14.5053 20.5578 16.6005 19.6899 18.1453 18.1452ZM18.1453 18.1452L23.3335 23.3333" stroke="currentColor" stroke-width="2.5" stroke-linecap="round" stroke-linejoin="round"/>
</svg>
