<svg width="26" height="26" viewBox="0 0 26 26" fill="none" xmlns="http://www.w3.org/2000/svg">
<path d="M5.95703 10.5624V21.9374C5.95703 22.0869 6.07836 22.2083 6.22786 22.2083H19.7695C19.8414 22.2083 19.9102 22.1797 19.961 22.1289C20.0118 22.0782 20.0404 22.0093 20.0404 21.9374V10.5624C20.0404 10.4906 20.0118 10.4217 19.961 10.3709C19.9102 10.3201 19.8414 10.2916 19.7695 10.2916H17.0612C16.8457 10.2916 16.639 10.206 16.4867 10.0536C16.3343 9.90125 16.2487 9.69459 16.2487 9.4791C16.2487 9.26361 16.3343 9.05695 16.4867 8.90458C16.639 8.75221 16.8457 8.6666 17.0612 8.6666H19.7695C20.816 8.6666 21.6654 9.51594 21.6654 10.5624V21.9374C21.6654 22.4402 21.4656 22.9225 21.1101 23.278C20.7546 23.6335 20.2723 23.8333 19.7695 23.8333H6.22786C5.72506 23.8333 5.24285 23.6335 4.88731 23.278C4.53177 22.9225 4.33203 22.4402 4.33203 21.9374V10.5624C4.33203 9.51594 5.18136 8.6666 6.22786 8.6666H8.9362C9.15169 8.6666 9.35835 8.75221 9.51072 8.90458C9.6631 9.05695 9.7487 9.26361 9.7487 9.4791C9.7487 9.69459 9.6631 9.90125 9.51072 10.0536C9.35835 10.206 9.15169 10.2916 8.9362 10.2916H6.22786C6.15604 10.2916 6.08715 10.3201 6.03636 10.3709C5.98557 10.4217 5.95703 10.4906 5.95703 10.5624ZM13.5729 1.3216L17.0937 4.84244C17.2007 4.94175 17.2788 5.06807 17.32 5.20809C17.3612 5.34811 17.3639 5.49664 17.3277 5.63804C17.2915 5.77944 17.2179 5.90847 17.1146 6.01154C17.0112 6.11461 16.882 6.1879 16.7405 6.22369C16.5993 6.25977 16.4509 6.25719 16.311 6.21621C16.1711 6.17523 16.0448 6.09736 15.9454 5.99077L13.8112 3.8566V15.4374C13.8112 15.6529 13.7256 15.8596 13.5732 16.012C13.4208 16.1643 13.2142 16.2499 12.9987 16.2499C12.7832 16.2499 12.5765 16.1643 12.4242 16.012C12.2718 15.8596 12.1862 15.6529 12.1862 15.4374V3.8566L10.052 5.99077C9.89804 6.13447 9.69427 6.21275 9.48367 6.20911C9.27308 6.20547 9.07213 6.1202 8.9232 5.97127C8.77427 5.82233 8.689 5.62138 8.68536 5.41079C8.68172 5.2002 8.76 4.99643 8.9037 4.84244L12.4245 1.3216C12.5769 1.16945 12.7834 1.08398 12.9987 1.08398C13.214 1.08398 13.4205 1.16945 13.5729 1.3216Z" fill="currentColor"/>
</svg>
