<svg width="28" height="28" viewBox="0 0 28 28" fill="none" xmlns="http://www.w3.org/2000/svg">
<path d="M2.625 8.16668C2.625 7.31577 2.96302 6.49972 3.5647 5.89804C4.16638 5.29636 4.98243 4.95834 5.83333 4.95834H22.1667C23.0176 4.95834 23.8336 5.29636 24.4353 5.89804C25.037 6.49972 25.375 7.31577 25.375 8.16668V11.6667C25.375 11.8987 25.2828 12.1213 25.1187 12.2854C24.9546 12.4495 24.7321 12.5417 24.5 12.5417C24.1132 12.5417 23.7423 12.6953 23.4688 12.9688C23.1953 13.2423 23.0417 13.6132 23.0417 14C23.0417 14.3868 23.1953 14.7577 23.4688 15.0312C23.7423 15.3047 24.1132 15.4583 24.5 15.4583C24.7321 15.4583 24.9546 15.5505 25.1187 15.7146C25.2828 15.8787 25.375 16.1013 25.375 16.3333V19.8333C25.375 20.6842 25.037 21.5003 24.4353 22.102C23.8336 22.7037 23.0176 23.0417 22.1667 23.0417H5.83333C4.98243 23.0417 4.16638 22.7037 3.5647 22.102C2.96302 21.5003 2.625 20.6842 2.625 19.8333V16.3333C2.625 16.1013 2.71719 15.8787 2.88128 15.7146C3.04538 15.5505 3.26794 15.4583 3.5 15.4583C3.88677 15.4583 4.25771 15.3047 4.5312 15.0312C4.80469 14.7577 4.95833 14.3868 4.95833 14C4.95833 13.6132 4.80469 13.2423 4.5312 12.9688C4.25771 12.6953 3.88677 12.5417 3.5 12.5417C3.26794 12.5417 3.04538 12.4495 2.88128 12.2854C2.71719 12.1213 2.625 11.8987 2.625 11.6667V8.16668ZM14.875 9.33334C14.875 9.10128 14.7828 8.87872 14.6187 8.71463C14.4546 8.55053 14.2321 8.45834 14 8.45834C13.7679 8.45834 13.5454 8.55053 13.3813 8.71463C13.2172 8.87872 13.125 9.10128 13.125 9.33334V9.91668C13.125 10.1487 13.2172 10.3713 13.3813 10.5354C13.5454 10.6995 13.7679 10.7917 14 10.7917C14.2321 10.7917 14.4546 10.6995 14.6187 10.5354C14.7828 10.3713 14.875 10.1487 14.875 9.91668V9.33334ZM14.875 13.7083C14.875 13.4763 14.7828 13.2537 14.6187 13.0896C14.4546 12.9255 14.2321 12.8333 14 12.8333C13.7679 12.8333 13.5454 12.9255 13.3813 13.0896C13.2172 13.2537 13.125 13.4763 13.125 13.7083V14.2917C13.125 14.5237 13.2172 14.7463 13.3813 14.9104C13.5454 15.0745 13.7679 15.1667 14 15.1667C14.2321 15.1667 14.4546 15.0745 14.6187 14.9104C14.7828 14.7463 14.875 14.5237 14.875 14.2917V13.7083ZM14.875 18.0833C14.875 17.8513 14.7828 17.6287 14.6187 17.4646C14.4546 17.3005 14.2321 17.2083 14 17.2083C13.7679 17.2083 13.5454 17.3005 13.3813 17.4646C13.2172 17.6287 13.125 17.8513 13.125 18.0833V18.6667C13.125 18.8987 13.2172 19.1213 13.3813 19.2854C13.5454 19.4495 13.7679 19.5417 14 19.5417C14.2321 19.5417 14.4546 19.4495 14.6187 19.2854C14.7828 19.1213 14.875 18.8987 14.875 18.6667V18.0833Z" fill="currentColor"/>
</svg>
