<svg width="27" height="26" viewBox="0 0 27 26" fill="none" xmlns="http://www.w3.org/2000/svg">
<path d="M13.666 12.729V13.2707M13.666 8.6665V9.20817M13.666 16.7915V17.3332M21.2493 20.5832C21.824 20.5832 22.3751 20.3549 22.7814 19.9486C23.1877 19.5422 23.416 18.9911 23.416 18.4165V15.1665C22.8414 15.1665 22.2903 14.9382 21.884 14.5319C21.4776 14.1256 21.2493 13.5745 21.2493 12.9998C21.2493 12.4252 21.4776 11.8741 21.884 11.4678C22.2903 11.0614 22.8414 10.8332 23.416 10.8332V7.58317C23.416 7.00853 23.1877 6.45743 22.7814 6.05111C22.3751 5.64478 21.824 5.4165 21.2493 5.4165H6.08268C5.50805 5.4165 4.95695 5.64478 4.55062 6.05111C4.14429 6.45743 3.91602 7.00853 3.91602 7.58317V10.8332C4.49065 10.8332 5.04175 11.0614 5.44808 11.4678C5.85441 11.8741 6.08268 12.4252 6.08268 12.9998C6.08268 13.5745 5.85441 14.1256 5.44808 14.5319C5.04175 14.9382 4.49065 15.1665 3.91602 15.1665V18.4165C3.91602 18.9911 4.14429 19.5422 4.55062 19.9486C4.95695 20.3549 5.50805 20.5832 6.08268 20.5832H21.2493Z" fill="none" stroke="currentColor" stroke-width="1.5" stroke-linecap="round" stroke-linejoin="round"/>
</svg>
