<svg width="26" height="26" viewBox="0 0 26 26" fill="none" xmlns="http://www.w3.org/2000/svg">
<mask id="mask0_1250_8126" style="mask-type:alpha" maskUnits="userSpaceOnUse" x="0" y="0" width="26" height="26">
<rect width="26" height="26" fill="#D9D9D9"/>
</mask>
<g mask="url(#mask0_1250_8126)">
<path d="M2.67871 20.9169V18.5084C2.67871 17.9335 2.82352 17.4311 3.11313 17.0012C3.40256 16.5713 3.78687 16.2348 4.26607 15.9918C5.1869 15.5223 6.1591 15.1425 7.18267 14.8524C8.20642 14.5621 9.41343 14.4169 10.8037 14.4169C11.3454 14.4169 11.8491 14.4387 12.315 14.4824C12.781 14.5261 13.2161 14.5918 13.6204 14.6793L12.1828 16.1169C11.9842 16.0808 11.7692 16.0592 11.5379 16.0522C11.3066 16.0453 11.0619 16.0419 10.8037 16.0419C9.52177 16.0419 8.39844 16.1849 7.43373 16.4709C6.4692 16.7571 5.66194 17.0807 5.01194 17.4418C4.76602 17.5738 4.58655 17.728 4.47352 17.9044C4.36032 18.0808 4.30371 18.2821 4.30371 18.5084V19.2919H10.866L12.491 20.9169H2.67871ZM16.7119 21.7251L13.3495 18.3627L14.4911 17.2211L16.7119 19.4419L22.1828 13.9711L23.3243 15.1127L16.7119 21.7251ZM10.8037 12.6668C9.761 12.6668 8.86834 12.2955 8.12571 11.5531C7.38327 10.8105 7.01204 9.91781 7.01204 8.8751C7.01204 7.83239 7.38327 6.93982 8.12571 6.19737C8.86834 5.45475 9.761 5.08344 10.8037 5.08344C11.8464 5.08344 12.739 5.45475 13.4814 6.19737C14.2239 6.93982 14.5951 7.83239 14.5951 8.8751C14.5951 9.91781 14.2239 10.8105 13.4814 11.5531C12.739 12.2955 11.8464 12.6668 10.8037 12.6668ZM10.8037 11.0418C11.3995 11.0418 11.9096 10.8296 12.3339 10.4053C12.7582 9.981 12.9704 9.47094 12.9704 8.8751C12.9704 8.27927 12.7582 7.7692 12.3339 7.34489C11.9096 6.92059 11.3995 6.70844 10.8037 6.70844C10.2079 6.70844 9.69781 6.92059 9.2735 7.34489C8.8492 7.7692 8.63704 8.27927 8.63704 8.8751C8.63704 9.47094 8.8492 9.981 9.2735 10.4053C9.69781 10.8296 10.2079 11.0418 10.8037 11.0418Z" fill="currentColor"/>
</g>
</svg>
