<svg width="26" height="26" viewBox="0 0 26 26" fill="none" xmlns="http://www.w3.org/2000/svg">
<path d="M24.7362 11.5335C25.2174 11.5335 25.6164 11.1345 25.6164 10.6533V9.47971C25.6164 4.30408 24.0438 2.73145 18.8682 2.73145H11.5331V5.37207C11.5331 5.85325 11.1341 6.25228 10.6529 6.25228C10.1717 6.25228 9.77268 5.85325 9.77268 5.37207V2.73145H7.13205C1.95643 2.73145 0.383789 4.30408 0.383789 9.47971V10.0665C0.383789 10.5477 0.782817 10.9467 1.264 10.9467C2.39066 10.9467 3.31782 11.8739 3.31782 13.0005C3.31782 14.1272 2.39066 15.0544 1.264 15.0544C0.782817 15.0544 0.383789 15.4534 0.383789 15.9346V16.5214C0.383789 21.697 1.95643 23.2696 7.13205 23.2696H9.77268V20.629C9.77268 20.1478 10.1717 19.7488 10.6529 19.7488C11.1341 19.7488 11.5331 20.1478 11.5331 20.629V23.2696H18.8682C24.0438 23.2696 25.6164 21.697 25.6164 16.5214C25.6164 16.0402 25.2174 15.6412 24.7362 15.6412C23.6096 15.6412 22.6824 14.714 22.6824 13.5873C22.6824 12.4607 23.6096 11.5335 24.7362 11.5335ZM11.5331 15.5473C11.5331 16.0285 11.1341 16.4275 10.6529 16.4275C10.1717 16.4275 9.77268 16.0285 9.77268 15.5473V10.4538C9.77268 9.97263 10.1717 9.5736 10.6529 9.5736C11.1341 9.5736 11.5331 9.97263 11.5331 10.4538V15.5473Z" fill="#A0A2A2"/>
<path d="M19.2041 13.3376L14.0923 13.3376M16.6739 15.8677L16.6739 10.7559" stroke="#121212" stroke-width="1.5" stroke-linecap="round"/>
</svg>
