<svg width="20" height="20" viewBox="0 0 20 20" fill="none" xmlns="http://www.w3.org/2000/svg">
<circle cx="10" cy="10" r="8" fill="#BB013C"/>
<path d="M9.79371 5.5C10.201 5.5 10.5291 5.83407 10.5218 6.24131L10.4324 11.2134C10.4261 11.5616 10.142 11.8406 9.79371 11.8406C9.44541 11.8406 9.16132 11.5616 9.15505 11.2134L9.06561 6.24131C9.05828 5.83407 9.3864 5.5 9.79371 5.5ZM9.80004 14.5C9.30575 14.5 8.88751 14.106 8.90018 13.6259C8.88751 13.1457 9.30575 12.7517 9.80004 12.7517C10.2817 12.7517 10.6999 13.1457 10.6999 13.6259C10.6999 14.106 10.2817 14.5 9.80004 14.5Z" fill="white"/>
</svg>
