<svg width="26" height="26" viewBox="0 0 26 26" fill="none" xmlns="http://www.w3.org/2000/svg">
<path fill-rule="evenodd" clip-rule="evenodd" d="M12.3753 3.4994C12.7405 3.20723 13.2595 3.20723 13.6247 3.4994L22.6247 10.6994C22.8619 10.8892 23 11.1765 23 11.4803V21.9996C23 22.5519 22.5523 22.9996 22 22.9996H17C16.4477 22.9996 16 22.5519 16 21.9996V17.9996C16 17.4474 15.5523 16.9996 15 16.9996H11C10.4477 16.9996 10 17.4474 10 17.9996V21.9996C10 22.5519 9.55228 22.9996 9 22.9996H4C3.44772 22.9996 3 22.5519 3 21.9996V11.4803C3 11.1765 3.13809 10.8892 3.37531 10.6994L12.3753 3.4994Z" fill="#F6F6F6"/>
</svg>
