<svg width="26" height="26" viewBox="0 0 26 26" fill="none" xmlns="http://www.w3.org/2000/svg">
<path d="M12.9928 4C7.46111 4 3 7.56885 3 11.9015C3 14.7138 4.85582 17.1763 7.63955 18.5824L6.69736 22.1014C6.6796 22.1541 6.67688 22.2108 6.68948 22.2648C6.70209 22.3191 6.72952 22.3689 6.76875 22.4083C6.82593 22.4586 6.8995 22.4866 6.97574 22.4867C7.03895 22.4818 7.09892 22.4567 7.14704 22.4154L11.2013 19.6817C11.7998 19.7642 12.403 19.8071 13.0072 19.8101C18.5319 19.8101 23 16.2413 23 11.9015C23 7.56172 18.5175 4 12.9928 4Z" fill="#585858"/>
</svg>
