<svg width="20" height="20" viewBox="0 0 20 20" fill="none" xmlns="http://www.w3.org/2000/svg">
<g clip-path="url(#clip0_919_1517)">
<path fill-rule="evenodd" clip-rule="evenodd" d="M18.1037 8.25128C18.5997 7.88951 18.6556 7.17036 18.2215 6.73624L13.2344 1.74913C12.8003 1.31501 12.0811 1.37094 11.7194 1.86696L8.82939 5.82936C8.82939 5.82937 8.82939 5.82938 8.82939 5.82938C8.8294 5.82939 8.8294 5.8294 8.82939 5.82941L4.07552 7.54554C3.38642 7.79431 3.18992 8.67519 3.70797 9.19324L10.7775 16.2627C11.2955 16.7808 12.1764 16.5843 12.4252 15.8952L14.1413 11.1413C14.1413 11.1413 14.1413 11.1413 14.1413 11.1413C14.1413 11.1413 14.1413 11.1413 14.1413 11.1413L18.1037 8.25128Z" fill="#A0A2A2"/>
<rect x="7.74316" y="11.3984" width="1" height="7.57032" rx="0.5" transform="rotate(45 7.74316 11.3984)" fill="#A0A2A2"/>
</g>
<defs>
<clipPath id="clip0_919_1517">
<rect width="20" height="20" fill="white"/>
</clipPath>
</defs>
</svg>
