<svg width="20" height="20" viewBox="0 0 20 20" fill="none" xmlns="http://www.w3.org/2000/svg">
<path fill-rule="evenodd" clip-rule="evenodd" d="M15.2959 14.0588C16.7191 12.6771 17.6033 10.7434 17.6033 8.60324C17.6033 4.40409 14.1992 1 10.0001 1C5.80094 1 2.39685 4.40409 2.39685 8.60324C2.39685 10.7131 3.25622 12.6222 4.64401 13.9997L9.23371 18.7322C9.62376 19.1344 10.2681 19.1377 10.6622 18.7395L15.2959 14.0588ZM14.3447 8.60327C14.3447 11.0028 12.3995 12.948 10 12.948C7.6005 12.948 5.6553 11.0028 5.6553 8.60327C5.6553 6.20375 7.6005 4.25856 10 4.25856C12.3995 4.25856 14.3447 6.20375 14.3447 8.60327Z" fill="#A0A2A2"/>
</svg>
