<svg width="36" height="36" viewBox="0 0 36 36" fill="none" xmlns="http://www.w3.org/2000/svg">
<path d="M12.5455 4.75381C12.8768 4.75381 13.1455 4.48518 13.1455 4.15381C13.1455 3.82244 12.8768 3.55381 12.5455 3.55381V4.75381ZM3.55387 12.5454C3.55387 12.8768 3.8225 13.1454 4.15387 13.1454C4.48524 13.1454 4.75387 12.8768 4.75387 12.5454H3.55387ZM12.5455 32.4461C12.8768 32.4461 13.1455 32.1775 13.1455 31.8461C13.1455 31.5147 12.8768 31.2461 12.5455 31.2461V32.4461ZM4.75387 23.4545C4.75387 23.1231 4.48524 22.8545 4.15387 22.8545C3.8225 22.8545 3.55387 23.1231 3.55387 23.4545H4.75387ZM23.4546 3.55381C23.1232 3.55381 22.8546 3.82244 22.8546 4.15381C22.8546 4.48518 23.1232 4.75381 23.4546 4.75381V3.55381ZM31.2462 12.5454C31.2462 12.8768 31.5148 13.1454 31.8462 13.1454C32.1775 13.1454 32.4462 12.8768 32.4462 12.5454H31.2462ZM32.4462 23.4545C32.4462 23.1231 32.1775 22.8545 31.8462 22.8545C31.5148 22.8545 31.2462 23.1231 31.2462 23.4545H32.4462ZM23.4546 31.2461C23.1232 31.2461 22.8546 31.5147 22.8546 31.8461C22.8546 32.1775 23.1232 32.4461 23.4546 32.4461V31.2461ZM5.41261 17.4003C5.08124 17.4003 4.81261 17.669 4.81261 18.0003C4.81261 18.3317 5.08124 18.6003 5.41261 18.6003V17.4003ZM30.5874 18.6003C30.9188 18.6003 31.1874 18.3317 31.1874 18.0003C31.1874 17.669 30.9188 17.4003 30.5874 17.4003V18.6003ZM6.95107 4.75381H12.5455V3.55381H6.95107V4.75381ZM4.75387 12.5454V6.95101H3.55387V12.5454H4.75387ZM6.95107 3.55381C5.07485 3.55381 3.55387 5.07479 3.55387 6.95101H4.75387C4.75387 5.73753 5.73759 4.75381 6.95107 4.75381V3.55381ZM12.5455 31.2461H6.95107V32.4461H12.5455V31.2461ZM4.75387 29.0489V23.4545H3.55387V29.0489H4.75387ZM6.95107 31.2461C5.73759 31.2461 4.75387 30.2624 4.75387 29.0489H3.55387C3.55387 30.9251 5.07485 32.4461 6.95107 32.4461V31.2461ZM23.4546 4.75381H29.049V3.55381H23.4546V4.75381ZM31.2462 6.95101V12.5454H32.4462V6.95101H31.2462ZM29.049 4.75381C30.2625 4.75381 31.2462 5.73753 31.2462 6.95101H32.4462C32.4462 5.07479 30.9252 3.55381 29.049 3.55381V4.75381ZM31.2462 23.4545V29.0489H32.4462V23.4545H31.2462ZM29.049 31.2461H23.4546V32.4461H29.049V31.2461ZM31.2462 29.0489C31.2462 30.2624 30.2625 31.2461 29.049 31.2461V32.4461C30.9252 32.4461 32.4462 30.9251 32.4462 29.0489H31.2462ZM5.41261 18.6003H18V17.4003H5.41261V18.6003ZM18 18.6003H30.5874V17.4003H18V18.6003Z" fill="white"/>
</svg>
