<svg width="36" height="36" viewBox="0 0 36 36" fill="none" xmlns="http://www.w3.org/2000/svg">
<path d="M4 6C4 5.44772 4.44772 5 5 5H27C27.5523 5 28 5.44772 28 6V13H4V6Z" fill="#F2F862"/>
<path d="M5 31C4.44772 31 4 30.5523 4 30V13H28V14.5C28 14.7761 27.7745 14.9956 27.5021 15.0411C26.0822 15.2783 25 16.5128 25 18C25 19.4872 26.0822 20.7217 27.5021 20.9589C27.7745 21.0044 28 21.2239 28 21.5V30C28 30.5523 27.5523 31 27 31H5Z" fill="#2F2F30"/>
<rect width="10" height="6" transform="matrix(-1 0 0 1 35 22)" fill="#585858"/>
<path d="M19 25L25 30.1962L25 19.8038L19 25Z" fill="#585858"/>
</svg>
