<svg width="37" height="36" viewBox="0 0 37 36" fill="none" xmlns="http://www.w3.org/2000/svg">
<path d="M4.5 6C4.5 5.44772 4.94772 5 5.5 5H27.5C28.0523 5 28.5 5.44772 28.5 6V13H4.5V6Z" fill="#FF0859"/>
<path d="M5.5 31C4.94772 31 4.5 30.5523 4.5 30V13H28.5V14.5C28.5 14.7761 28.2745 14.9956 28.0021 15.0411C26.5822 15.2783 25.5 16.5128 25.5 18C25.5 19.4872 26.5822 20.7217 28.0021 20.9589C28.2745 21.0044 28.5 21.2239 28.5 21.5V30C28.5 30.5523 28.0523 31 27.5 31H5.5Z" fill="#2F2F30"/>
<rect x="19.5" y="22" width="10" height="6" fill="#FF0859"/>
<path d="M35.5 25L29.5 30.1962L29.5 19.8038L35.5 25Z" fill="#FF0859"/>
</svg>
