<svg width="26" height="26" viewBox="0 0 26 26" fill="none" xmlns="http://www.w3.org/2000/svg">
<path fill-rule="evenodd" clip-rule="evenodd" d="M21.9637 12.3948C21.9775 12.5949 21.9842 12.7955 21.9838 12.9963C21.9832 13.1847 21.9764 13.3729 21.9634 13.5607C21.92 14.1886 22.1935 14.8141 22.7394 15.1275C23.4442 15.5321 23.6877 16.4314 23.2833 17.1363L21.7447 19.8183C21.3389 20.5256 20.436 20.7691 19.7297 20.3616C19.1908 20.0507 18.521 20.1219 18.0035 20.4672C17.6658 20.6925 17.3133 20.8949 16.9484 21.0729C16.3849 21.3477 15.9835 21.8958 15.9835 22.5227C15.9835 23.3386 15.3221 24 14.5062 24H11.4232C10.6344 24 9.995 23.3606 9.995 22.5718C9.995 21.966 9.60754 21.436 9.06211 21.1724C8.68554 20.9904 8.32203 20.7825 7.97415 20.5504C7.45676 20.2051 6.78705 20.1341 6.24822 20.4449C5.54169 20.8524 4.63853 20.6088 4.23277 19.9012L2.69559 17.2208C2.29092 16.5152 2.53454 15.6151 3.23987 15.2099C3.78564 14.8964 4.05944 14.2712 4.01579 13.6433C3.98794 13.2426 3.98795 12.8406 4.01581 12.4399C4.05946 11.8122 3.7856 11.1872 3.23986 10.8739C2.53461 10.4691 2.29089 9.56936 2.69543 8.86396L4.23277 6.18323C4.63853 5.47569 5.54169 5.23208 6.24822 5.6396C6.78705 5.9504 7.45676 5.87941 7.97416 5.53411C8.31232 5.30842 8.66526 5.10572 9.03061 4.92739C9.59387 4.65244 9.995 4.10444 9.995 3.47765C9.995 2.66157 10.6566 2 11.4726 2H14.5327C15.334 2 15.9835 2.64957 15.9835 3.45085C15.9835 4.06616 16.3771 4.60435 16.9306 4.87317C17.3018 5.05347 17.6603 5.2589 18.0036 5.488C18.521 5.83335 19.1907 5.90437 19.7296 5.59353C20.436 5.18605 21.339 5.42952 21.7448 6.13687L23.2835 8.81916C23.6878 9.52389 23.4444 10.4229 22.7398 10.8274C22.1937 11.1409 21.9205 11.7667 21.9637 12.3948ZM9.73777 12.9963C9.73777 11.2011 11.1931 9.74577 12.9883 9.74577C14.7835 9.74577 16.2387 11.2011 16.2387 12.9963C16.2387 14.7914 14.7835 16.2467 12.9883 16.2467C11.1931 16.2467 9.73777 14.7914 9.73777 12.9963ZM12.9883 8.24577C10.3646 8.24577 8.23777 10.3726 8.23777 12.9963C8.23777 15.6199 10.3646 17.7467 12.9883 17.7467C15.6119 17.7467 17.7387 15.6199 17.7387 12.9963C17.7387 10.3726 15.6119 8.24577 12.9883 8.24577Z" fill="#A0A2A2"/>
</svg>
