<svg width="162" height="129" viewBox="0 0 162 129" fill="none" xmlns="http://www.w3.org/2000/svg">
<path d="M59.525 13.5535L7.95841 60.1242L23.2235 128.264L141.297 101.812L126.032 33.6727L59.525 13.5535Z" fill="#242425"/>
<path d="M7.54199 60.5547L22.8445 128.862L73.5662 73.9452L7.54199 60.5547Z" fill="#1B1B1B"/>
<path d="M127.567 33.665L142.87 101.972L73.5666 73.9443L127.567 33.665Z" fill="#1B1B1B"/>
<path d="M66.2894 75.41C69.7891 71.115 75.7742 69.7741 80.7718 72.1655L142.272 101.594L23.2227 128.264L66.2894 75.41Z" fill="#1E1E1E"/>
<g filter="url(#filter0_d_2230_3715)">
<path fill-rule="evenodd" clip-rule="evenodd" d="M82.5248 35.9371C82.7997 34.8673 83.8897 34.2228 84.9596 34.4977L159.538 53.6573C160.608 53.9321 161.252 55.0222 160.977 56.092L157.906 68.0462C157.631 69.116 156.534 69.7315 155.429 69.7356C151.958 69.7487 148.798 72.0899 147.894 75.6085C146.99 79.1271 148.63 82.7018 151.665 84.3861C152.631 84.9222 153.296 85.9905 153.021 87.0603L149.95 99.014C149.675 100.084 148.585 100.728 147.516 100.453L72.9373 81.2938C71.8675 81.019 71.223 79.9289 71.4979 78.8591L74.5689 66.9054C74.8437 65.8356 75.9414 65.2201 77.0459 65.216C80.5167 65.2029 83.6773 62.8618 84.5812 59.3431C85.4852 55.8245 83.8445 52.2498 80.8097 50.5655C79.8439 50.0294 79.1789 48.9611 79.4537 47.8913L82.5248 35.9371Z" fill="#FF0859"/>
</g>
<defs>
<filter id="filter0_d_2230_3715" x="65.4346" y="34.4346" width="95.6064" height="72.082" filterUnits="userSpaceOnUse" color-interpolation-filters="sRGB">
<feFlood flood-opacity="0" result="BackgroundImageFix"/>
<feColorMatrix in="SourceAlpha" type="matrix" values="0 0 0 0 0 0 0 0 0 0 0 0 0 0 0 0 0 0 127 0" result="hardAlpha"/>
<feOffset dx="-6" dy="6"/>
<feComposite in2="hardAlpha" operator="out"/>
<feColorMatrix type="matrix" values="0 0 0 0 0 0 0 0 0 0 0 0 0 0 0 0 0 0 0.12 0"/>
<feBlend mode="normal" in2="BackgroundImageFix" result="effect1_dropShadow_2230_3715"/>
<feBlend mode="normal" in="SourceGraphic" in2="effect1_dropShadow_2230_3715" result="shape"/>
</filter>
</defs>
</svg>
