<svg width="84" height="28" viewBox="0 0 84 28" fill="none" xmlns="http://www.w3.org/2000/svg">
<g clip-path="url(#clip0_2245_1803)">
<path d="M17.3853 10.167V22.5955H12.6824V10.167H4V5.37988H26.044V10.1645H17.3853V10.167Z" fill="white"/>
<path d="M27.1776 22.5961V11.4971H31.8805V22.5961H27.1776Z" fill="white"/>
<path d="M47.9718 24L42.2373 17.5481L36.4814 24L32.9951 20.7861L39.057 13.9771L32.9951 7.21631L36.4814 4.00241L42.2373 10.4302L47.9718 4L51.4343 7.2139L45.3962 13.9747L51.4343 20.7837L47.9718 23.9976V24Z" fill="white"/>
<path d="M67.5351 24L61.8006 17.5481L56.0447 24L52.5585 20.7861L58.6203 13.9771L52.5585 7.21631L56.0447 4.00241L61.8006 10.4302L67.5351 4L70.9976 7.2139L64.9595 13.9747L70.9976 20.7837L67.5351 23.9976V24Z" fill="white"/>
<path d="M32.1586 7.87988C32.1586 9.31241 31.1011 10.3799 29.6411 10.3799C28.1811 10.3799 27.1586 9.31493 27.1586 7.87988C27.1586 6.44484 28.2161 5.37988 29.6411 5.37988C31.0661 5.37988 32.1586 6.44484 32.1586 7.87988Z" fill="#FF0859"/>
</g>
<defs>
<clipPath id="clip0_2245_1803">
<rect width="67" height="20" fill="white" transform="translate(4 4)"/>
</clipPath>
</defs>
</svg>
